<svg id="svg" version="1.1" xmlns="http://www.w3.org/2000/svg" xmlns:xlink="http://www.w3.org/1999/xlink" width="400" height="349.6738117427773" viewBox="0, 0, 400,349.6738117427773"><g id="svgg"><path id="path0" d="M185.127 69.679 C 183.876 69.850,182.143 70.052,181.277 70.130 C 180.411 70.207,179.466 70.358,179.178 70.464 C 178.505 70.712,176.433 71.098,175.416 71.165 C 174.983 71.193,174.628 71.351,174.628 71.516 C 174.628 71.681,174.431 71.741,174.191 71.649 C 173.950 71.558,173.360 71.641,172.878 71.835 C 172.064 72.162,171.221 72.370,170.166 72.503 C 169.926 72.533,169.729 72.658,169.729 72.782 C 169.729 73.026,164.820 74.392,164.392 74.267 C 164.248 74.225,164.129 74.331,164.129 74.502 C 164.129 74.673,163.542 74.923,162.824 75.058 C 162.105 75.192,161.200 75.478,160.811 75.692 C 160.423 75.907,159.908 76.129,159.668 76.186 C 159.427 76.244,158.955 76.357,158.618 76.439 C 158.281 76.520,157.799 76.599,157.547 76.614 C 157.295 76.628,157.186 76.798,157.305 76.990 C 157.428 77.189,157.134 77.340,156.626 77.340 C 156.134 77.340,155.731 77.493,155.731 77.679 C 155.731 77.866,155.496 77.928,155.209 77.818 C 154.911 77.704,154.594 77.858,154.472 78.177 C 154.354 78.484,154.106 78.643,153.922 78.529 C 153.738 78.415,153.306 78.575,152.963 78.886 C 152.189 79.587,148.451 81.540,147.508 81.737 C 147.123 81.817,146.756 82.042,146.691 82.236 C 146.626 82.431,146.350 82.590,146.078 82.590 C 145.805 82.590,145.582 82.764,145.582 82.977 C 145.582 83.190,145.346 83.274,145.057 83.163 C 144.768 83.052,144.528 83.154,144.524 83.388 C 144.520 83.623,143.812 84.287,142.950 84.864 C 142.060 85.461,141.384 86.188,141.383 86.547 C 141.383 86.896,141.225 87.083,141.032 86.964 C 140.840 86.845,140.682 87.063,140.682 87.448 C 140.682 87.833,140.525 88.245,140.332 88.364 C 140.140 88.483,139.983 88.880,139.983 89.246 C 139.983 89.612,139.764 90.114,139.497 90.362 C 139.086 90.746,139.107 90.947,139.641 91.698 C 140.354 92.703,140.425 95.779,139.751 96.494 C 139.528 96.731,139.419 97.207,139.509 97.552 C 139.700 98.285,138.256 101.013,137.106 102.091 C 135.818 103.298,135.596 103.699,135.555 104.899 C 135.528 105.654,135.678 106.037,135.999 106.037 C 136.265 106.037,136.485 105.840,136.488 105.599 C 136.493 105.250,136.550 105.250,136.772 105.600 C 136.985 105.935,137.209 105.890,137.729 105.407 C 138.102 105.060,138.683 104.671,139.020 104.543 C 139.357 104.414,139.633 104.058,139.633 103.752 C 139.633 103.446,139.475 103.293,139.283 103.412 C 138.754 103.738,138.863 103.257,139.450 102.670 C 139.734 102.386,140.167 102.194,140.412 102.244 C 140.657 102.293,141.212 102.138,141.645 101.898 C 142.148 101.620,142.432 101.595,142.432 101.828 C 142.432 102.029,144.755 101.018,147.594 99.581 C 167.369 89.570,192.302 85.945,217.323 89.443 C 217.997 89.537,219.650 89.768,220.997 89.955 C 228.200 90.956,230.097 91.541,237.445 95.032 C 242.880 97.614,249.774 101.551,252.517 103.639 C 254.044 104.801,255.878 106.170,256.592 106.682 C 258.186 107.823,258.199 107.988,256.799 109.432 L 255.681 110.586 257.402 110.586 C 259.122 110.586,259.123 110.587,258.258 111.170 C 257.782 111.491,257.328 111.805,257.250 111.867 C 257.120 111.970,258.143 113.065,262.543 117.531 C 263.368 118.368,266.247 120.680,268.941 122.670 C 275.222 127.307,275.627 127.639,275.346 127.921 C 275.217 128.050,273.589 127.115,271.728 125.845 C 267.554 122.995,267.450 122.990,270.023 125.762 C 274.071 130.124,276.641 133.035,276.959 133.617 C 277.565 134.729,278.951 135.783,279.808 135.783 C 280.336 135.783,280.665 135.984,280.665 136.308 C 280.665 136.597,280.507 136.833,280.315 136.833 C 280.122 136.833,279.965 137.069,279.965 137.358 C 279.965 137.647,280.125 137.883,280.322 137.883 C 280.528 137.883,280.585 138.254,280.457 138.764 C 280.248 139.598,280.287 139.626,281.173 139.289 C 282.441 138.807,282.415 138.792,282.415 140.006 C 282.415 140.610,282.795 141.578,283.285 142.221 C 284.309 143.562,288.014 151.235,288.014 152.013 C 288.014 152.424,288.517 152.572,290.188 152.652 C 292.752 152.775,292.210 151.522,294.473 162.555 C 294.789 164.094,295.194 166.063,295.375 166.929 C 295.960 169.742,296.702 175.085,296.920 178.061 C 297.037 179.660,297.278 181.235,297.455 181.560 C 297.632 181.886,297.873 182.900,297.991 183.815 C 298.109 184.729,298.329 185.477,298.480 185.477 C 299.084 185.477,299.824 184.187,299.845 183.099 C 299.869 181.801,300.908 178.828,301.337 178.828 C 301.491 178.828,301.815 178.281,302.056 177.613 C 302.418 176.613,302.632 176.432,303.266 176.591 C 303.689 176.698,304.141 176.614,304.269 176.406 C 305.122 175.027,307.414 178.413,306.768 180.097 C 306.653 180.396,306.661 180.806,306.786 181.007 C 307.011 181.371,306.979 186.319,306.744 187.541 C 306.676 187.892,306.527 189.972,306.412 192.165 C 306.298 194.357,306.109 196.820,305.993 197.639 C 305.877 198.458,305.769 201.175,305.753 203.676 C 305.737 206.177,305.637 208.224,305.530 208.224 C 305.424 208.224,305.334 209.051,305.330 210.061 C 305.323 212.256,304.378 214.380,303.288 214.654 C 302.724 214.796,302.398 215.283,302.085 216.454 C 301.848 217.337,301.516 217.973,301.345 217.868 C 301.175 217.763,300.928 217.951,300.797 218.287 C 300.592 218.811,300.486 218.762,300.049 217.935 C 299.436 216.776,298.989 216.732,297.933 217.724 C 297.071 218.534,295.829 218.087,296.207 217.103 C 296.303 216.851,296.240 216.557,296.065 216.449 C 295.891 216.342,295.661 216.848,295.554 217.576 C 295.376 218.787,292.729 232.230,292.317 234.014 C 292.183 234.591,292.301 234.786,292.789 234.794 C 294.404 234.821,295.188 235.089,295.193 235.613 C 295.199 236.467,295.637 236.719,296.242 236.217 C 296.542 235.968,297.254 235.778,297.825 235.794 C 298.396 235.810,298.863 235.695,298.863 235.538 C 298.863 235.132,300.695 234.832,301.256 235.146 C 301.514 235.290,301.721 235.552,301.717 235.727 C 301.704 236.221,302.836 235.888,303.325 235.254 C 303.725 234.735,303.762 234.738,303.762 235.290 C 303.762 235.621,303.997 235.983,304.285 236.093 C 304.573 236.204,304.704 236.462,304.578 236.667 C 304.441 236.887,304.550 236.962,304.844 236.849 C 305.434 236.622,305.992 237.175,306.152 238.145 C 306.408 239.698,306.249 242.332,305.892 242.451 C 305.683 242.521,305.512 242.732,305.512 242.919 C 305.512 243.107,305.662 243.168,305.846 243.054 C 306.044 242.932,306.124 243.386,306.041 244.171 C 305.965 244.899,305.880 245.494,305.853 245.494 C 305.802 245.494,305.771 245.767,305.359 249.932 C 304.791 255.659,306.287 257.471,307.472 252.493 C 307.610 251.916,307.926 251.129,308.175 250.744 C 308.648 250.011,308.661 249.959,308.661 248.798 C 308.661 248.394,308.819 248.175,309.021 248.300 C 309.252 248.443,309.311 248.128,309.186 247.419 C 309.048 246.633,309.109 246.388,309.399 246.567 C 309.686 246.745,309.758 246.495,309.644 245.719 C 309.555 245.114,309.615 244.619,309.777 244.619 C 310.561 244.619,309.769 162.022,308.982 161.737 C 308.803 161.673,308.750 161.469,308.864 161.285 C 308.978 161.100,308.922 160.759,308.739 160.527 C 308.557 160.295,308.305 159.396,308.180 158.530 C 307.933 156.817,307.562 155.050,306.710 151.531 C 306.407 150.280,306.100 148.973,306.027 148.627 C 305.955 148.281,305.562 147.060,305.155 145.913 C 304.748 144.766,304.337 143.399,304.242 142.875 C 304.147 142.351,303.882 141.803,303.653 141.658 C 303.424 141.512,303.387 141.391,303.570 141.388 C 303.752 141.385,303.713 141.193,303.482 140.962 C 303.251 140.731,303.062 140.180,303.062 139.738 C 303.062 139.295,302.943 138.933,302.798 138.933 C 302.653 138.933,302.163 137.948,301.711 136.745 C 301.258 135.542,300.321 133.377,299.628 131.934 C 298.934 130.490,298.332 129.088,298.288 128.819 C 298.245 128.549,298.060 128.235,297.878 128.119 C 297.696 128.004,297.013 126.885,296.360 125.634 C 295.707 124.383,295.021 123.123,294.836 122.835 C 294.650 122.546,294.496 122.204,294.494 122.075 C 294.491 121.946,294.147 121.448,293.729 120.968 C 293.312 120.488,293.062 120.003,293.175 119.890 C 293.288 119.777,293.198 119.685,292.976 119.685 C 292.754 119.685,292.343 119.134,292.061 118.460 C 291.780 117.787,291.384 117.235,291.181 117.235 C 290.979 117.235,290.814 117.071,290.814 116.870 C 290.814 116.670,290.144 115.609,289.326 114.514 C 288.508 113.418,287.760 112.326,287.663 112.088 C 287.566 111.849,286.440 110.508,285.162 109.108 C 283.884 107.707,282.818 106.447,282.794 106.307 C 282.770 106.166,281.657 105.001,280.319 103.717 C 278.982 102.434,277.974 101.245,278.078 101.077 C 278.182 100.908,278.066 100.813,277.820 100.866 C 277.574 100.919,277.365 100.726,277.356 100.437 C 277.347 100.149,277.170 99.913,276.962 99.913 C 276.539 99.913,274.032 97.669,271.490 95.016 C 270.569 94.056,269.814 93.426,269.811 93.617 C 269.807 93.841,269.715 93.839,269.548 93.611 C 269.407 93.418,268.425 92.608,267.367 91.813 C 266.308 91.017,265.087 90.028,264.654 89.614 C 264.221 89.200,263.867 88.971,263.867 89.104 C 263.867 89.238,263.591 89.100,263.255 88.799 C 262.337 87.977,258.939 85.739,258.609 85.739 C 258.451 85.739,257.837 85.332,257.245 84.833 C 256.653 84.335,256.163 84.059,256.157 84.221 C 256.151 84.382,255.984 84.236,255.786 83.895 C 255.587 83.554,255.277 83.366,255.097 83.478 C 254.916 83.590,254.768 83.539,254.768 83.366 C 254.768 83.094,253.213 82.160,252.641 82.090 C 252.285 82.046,249.700 80.674,249.515 80.430 C 249.417 80.301,248.905 80.087,248.378 79.955 C 247.851 79.822,247.419 79.547,247.419 79.344 C 247.419 79.140,247.314 79.079,247.185 79.208 C 247.056 79.336,246.662 79.180,246.308 78.860 C 245.954 78.540,245.572 78.371,245.459 78.484 C 245.275 78.667,244.608 78.358,242.305 77.023 C 241.569 76.596,235.815 74.615,234.504 74.336 C 234.041 74.238,233.382 74.007,233.040 73.824 C 232.697 73.641,232.082 73.491,231.673 73.491 C 231.204 73.491,231.021 73.343,231.178 73.090 C 231.352 72.808,231.151 72.758,230.498 72.922 C 229.925 73.065,229.571 73.010,229.571 72.777 C 229.571 72.569,229.414 72.497,229.221 72.616 C 229.029 72.735,228.871 72.692,228.871 72.520 C 228.871 72.348,228.675 72.193,228.434 72.175 C 228.193 72.158,227.524 72.034,226.947 71.901 C 226.369 71.768,225.700 71.652,225.459 71.642 C 225.219 71.632,225.022 71.533,225.022 71.420 C 225.022 71.308,224.668 71.196,224.234 71.171 C 223.801 71.146,222.502 70.945,221.347 70.724 C 220.192 70.503,218.618 70.232,217.848 70.122 C 217.078 70.011,215.739 69.791,214.873 69.632 C 212.769 69.247,188.011 69.286,185.127 69.679 M142.903 101.050 C 142.992 101.194,142.686 101.335,142.224 101.363 C 141.761 101.391,141.382 101.272,141.382 101.100 C 141.382 100.722,142.674 100.679,142.903 101.050 M152.931 132.831 C 118.202 139.078,104.454 179.978,128.647 205.075 C 137.657 214.420,153.382 220.141,164.190 218.004 C 172.497 216.362,174.088 215.876,178.653 213.589 C 187.166 209.323,194.276 202.008,198.250 193.427 C 199.963 189.728,199.776 189.727,201.557 193.438 C 205.802 202.285,212.849 209.498,221.444 213.795 C 228.124 217.134,239.433 219.203,244.727 218.054 C 245.534 217.879,247.297 217.545,248.644 217.312 C 273.151 213.074,288.781 187.095,281.484 162.730 C 270.287 125.343,219.283 121.483,201.715 156.692 L 199.889 160.351 198.299 157.078 C 189.889 139.762,170.881 129.603,152.931 132.831 M165.344 147.355 C 168.544 147.913,168.657 148.062,167.179 149.788 C 156.641 162.100,172.584 179.098,185.540 169.363 C 187.685 167.752,187.562 167.689,188.143 170.687 C 191.402 187.528,178.713 202.817,161.120 203.246 C 147.693 203.573,137.956 197.142,133.282 184.857 L 132.120 181.802 132.120 175.328 L 132.120 168.854 133.305 165.734 C 138.320 152.540,151.546 144.953,165.344 147.355 M244.468 147.350 C 246.816 147.766,249.893 148.679,250.347 149.095 C 250.513 149.247,250.242 149.906,249.745 150.558 C 244.619 157.279,246.827 166.974,254.328 170.678 C 257.727 172.357,262.730 172.603,265.698 171.236 C 267.819 170.259,267.858 170.333,267.844 175.320 C 267.797 191.430,256.471 202.880,240.218 203.247 C 230.788 203.459,225.718 201.514,219.441 195.276 C 199.929 175.883,217.340 142.542,244.468 147.350 M104.101 147.700 C 103.975 147.903,103.692 148.008,103.471 147.934 C 103.249 147.861,102.885 147.984,102.661 148.207 C 102.437 148.431,101.700 148.596,101.022 148.574 C 100.344 148.551,99.866 148.656,99.959 148.807 C 100.053 148.958,99.901 149.081,99.623 149.081 C 99.346 149.081,98.860 149.475,98.545 149.956 C 98.230 150.437,98.063 150.831,98.175 150.831 C 98.286 150.831,98.132 151.181,97.833 151.609 C 97.533 152.037,97.288 152.667,97.288 153.009 C 97.288 153.351,97.149 153.631,96.980 153.631 C 96.811 153.631,96.477 154.103,96.238 154.681 C 95.999 155.258,95.655 155.731,95.475 155.731 C 95.294 155.731,95.214 155.849,95.296 155.993 C 95.378 156.137,95.158 156.728,94.808 157.305 C 93.110 160.105,92.394 162.227,91.503 167.104 C 91.433 167.489,91.199 168.749,90.984 169.904 C 90.766 171.073,90.527 177.354,90.446 184.077 C 90.365 190.717,90.220 197.410,90.123 198.950 C 89.677 206.014,89.557 207.757,89.461 208.562 C 89.404 209.037,89.491 210.139,89.654 211.012 C 89.818 211.885,90.016 214.031,90.094 215.782 C 90.173 217.533,90.324 219.502,90.430 220.157 C 90.536 220.812,90.697 222.450,90.787 223.797 C 90.878 225.144,91.105 226.719,91.292 227.297 C 91.479 227.874,91.729 229.424,91.848 230.741 C 92.237 235.047,95.078 241.312,96.298 240.558 C 96.458 240.459,96.588 240.544,96.588 240.745 C 96.588 240.947,96.977 241.080,97.452 241.041 C 98.274 240.972,98.958 239.623,98.754 238.474 C 98.717 238.270,99.002 237.764,99.387 237.351 C 99.772 236.938,100.087 236.357,100.087 236.060 C 100.087 235.258,101.173 235.407,101.391 236.238 C 101.720 237.496,105.851 236.262,105.548 234.996 C 100.198 212.584,100.800 183.760,107.223 154.881 L 108.074 151.058 107.230 150.394 C 106.766 150.029,106.387 149.563,106.387 149.359 C 106.387 148.515,104.461 147.118,104.101 147.700 M297.113 219.477 C 297.113 219.639,296.798 219.773,296.413 219.773 C 295.889 219.773,295.713 219.539,295.713 218.843 C 295.713 217.936,295.730 217.929,296.413 218.548 C 296.798 218.896,297.113 219.314,297.113 219.477 M290.529 239.720 C 290.497 240.771,291.012 241.670,291.266 241.007 C 291.390 240.684,291.351 240.420,291.178 240.420 C 291.006 240.420,290.793 240.144,290.705 239.808 C 290.596 239.392,290.540 239.364,290.529 239.720 " stroke="none" fill="#fbf2f6" fill-rule="evenodd"></path><path id="path1" d="M153.281 147.987 C 127.446 155.363,124.269 189.624,148.382 200.820 C 168.262 210.051,191.253 193.212,187.930 171.854 C 187.387 168.362,187.315 168.316,185.113 170.057 C 172.840 179.758,157.113 162.176,166.951 149.753 L 168.035 148.385 167.044 147.974 C 165.249 147.229,155.905 147.237,153.281 147.987 M232.546 148.003 C 207.179 154.945,203.757 189.179,227.297 200.516 C 245.971 209.510,267.277 196.381,267.466 175.763 C 267.509 171.082,267.434 170.967,264.917 171.839 C 252.767 176.047,241.965 162.028,249.043 151.236 C 249.718 150.207,250.219 149.318,250.157 149.260 C 248.385 147.609,236.964 146.794,232.546 148.003 " stroke="none" fill="#6b4cbe" fill-rule="evenodd"></path><path id="path2" d="M176.028 97.676 C 175.547 97.819,173.949 98.113,172.478 98.329 C 171.007 98.544,168.960 99.034,167.929 99.418 C 166.898 99.801,164.637 100.490,162.905 100.949 C 159.447 101.866,156.292 102.989,153.183 104.412 C 152.071 104.920,151.027 105.337,150.864 105.337 C 150.701 105.337,149.722 105.710,148.687 106.166 C 147.653 106.622,145.983 107.171,144.977 107.386 C 143.970 107.600,142.474 108.079,141.652 108.450 C 140.830 108.821,139.340 109.384,138.342 109.701 C 137.343 110.019,135.847 110.738,135.017 111.301 C 134.165 111.878,133.036 112.326,132.423 112.330 C 131.168 112.337,129.255 113.634,127.196 115.874 C 118.045 125.829,112.339 137.083,108.657 152.444 C 107.711 156.389,106.645 161.363,106.229 163.780 C 105.947 165.416,105.478 168.093,105.188 169.729 C 103.699 178.118,103.374 187.873,104.462 191.534 C 104.751 192.507,104.987 193.816,104.987 194.444 C 104.987 195.071,105.147 195.683,105.343 195.804 C 105.538 195.925,105.610 196.167,105.501 196.342 C 105.393 196.518,105.454 196.940,105.637 197.282 C 105.820 197.624,106.057 199.792,106.163 202.101 C 106.365 206.473,106.590 208.266,107.088 209.449 C 107.249 209.834,107.732 211.724,108.160 213.648 C 108.588 215.573,109.771 219.589,110.789 222.572 C 111.806 225.556,112.823 228.705,113.049 229.571 C 113.274 230.437,113.562 231.225,113.688 231.321 C 114.381 231.849,115.215 234.122,115.072 235.094 C 114.977 235.743,115.049 236.099,115.250 235.975 C 115.458 235.846,115.519 236.384,115.407 237.373 C 115.279 238.512,115.360 239.031,115.685 239.156 C 116.262 239.378,117.175 240.749,117.348 241.657 C 117.421 242.035,117.597 242.613,117.739 242.940 C 117.881 243.268,117.890 243.710,117.759 243.922 C 117.628 244.134,118.023 244.787,118.637 245.374 C 119.432 246.134,119.709 246.672,119.599 247.248 C 119.505 247.738,119.595 247.999,119.827 247.913 C 120.038 247.835,120.511 248.401,120.879 249.170 C 121.246 249.939,121.680 250.569,121.841 250.569 C 122.003 250.569,122.135 250.783,122.135 251.046 C 122.135 251.308,122.561 251.949,123.081 252.470 C 123.602 252.990,123.799 253.366,123.519 253.305 C 123.187 253.232,122.971 253.531,122.898 254.164 C 122.822 254.823,122.934 255.104,123.248 255.039 C 123.502 254.986,123.664 255.159,123.608 255.424 C 123.545 255.719,123.702 255.829,124.016 255.708 C 124.669 255.458,125.109 256.541,124.509 256.922 C 124.262 257.079,124.169 257.210,124.304 257.212 C 124.438 257.215,124.383 257.690,124.182 258.267 C 123.981 258.845,123.657 259.218,123.461 259.097 C 123.266 258.977,122.969 259.095,122.801 259.360 C 122.542 259.769,122.495 259.768,122.490 259.356 C 122.487 259.089,122.760 258.655,123.097 258.393 C 123.680 257.939,123.680 257.926,123.097 258.129 C 122.665 258.280,122.485 258.161,122.485 257.727 C 122.485 257.202,122.380 257.231,121.785 257.918 C 121.400 258.362,121.085 258.534,121.085 258.301 C 121.085 258.067,120.940 257.966,120.763 258.075 C 120.586 258.185,120.107 257.849,119.698 257.330 C 118.860 256.265,117.968 256.072,117.035 256.754 C 116.671 257.021,116.588 257.218,116.839 257.218 C 117.080 257.218,117.178 257.378,117.056 257.574 C 116.635 258.256,119.992 262.877,123.598 266.579 C 124.770 267.782,125.559 268.766,125.352 268.766 C 125.145 268.766,124.878 268.609,124.759 268.416 C 124.398 267.831,124.037 268.023,123.976 268.833 C 123.944 269.254,124.225 269.814,124.601 270.077 C 124.977 270.341,125.284 270.871,125.284 271.257 C 125.284 271.642,125.435 271.864,125.619 271.751 C 125.803 271.637,126.219 271.949,126.543 272.443 C 126.867 272.938,127.809 273.652,128.637 274.028 C 129.464 274.405,130.246 274.882,130.373 275.089 C 130.500 275.295,130.815 275.382,131.073 275.284 C 131.331 275.185,132.413 275.410,133.478 275.785 C 134.544 276.159,135.616 276.466,135.862 276.468 C 136.107 276.469,136.757 276.704,137.307 276.991 C 137.856 277.277,138.471 277.409,138.673 277.284 C 138.875 277.159,138.941 277.219,138.819 277.417 C 138.686 277.631,139.194 277.859,140.077 277.983 C 140.891 278.097,142.345 278.358,143.307 278.564 C 144.269 278.769,145.923 279.018,146.982 279.116 C 148.040 279.214,149.143 279.361,149.431 279.443 C 150.176 279.655,153.650 279.970,157.130 280.141 C 161.444 280.352,165.012 280.654,167.804 281.043 C 170.030 281.353,173.111 281.323,184.602 280.877 C 186.719 280.795,192.625 280.690,197.725 280.643 C 202.826 280.596,209.283 280.438,212.073 280.293 C 214.864 280.148,219.038 279.931,221.347 279.813 C 225.042 279.623,229.725 279.263,235.310 278.739 C 236.252 278.651,237.105 278.497,237.205 278.397 C 237.392 278.210,235.512 278.058,234.337 278.164 C 233.974 278.197,233.459 278.042,233.191 277.820 C 232.500 277.246,225.647 277.073,225.299 277.620 C 225.103 277.929,225.031 277.932,225.027 277.633 C 225.022 277.230,222.011 276.824,218.110 276.700 C 217.100 276.668,216.273 276.506,216.273 276.341 C 216.273 276.176,216.037 276.131,215.748 276.242 C 215.459 276.353,215.223 276.308,215.223 276.143 C 215.223 275.978,215.026 275.851,214.786 275.860 C 212.643 275.939,212.294 275.788,212.948 275.066 C 213.297 274.681,213.799 274.366,214.063 274.366 C 214.328 274.366,214.649 274.090,214.775 273.753 C 215.075 272.953,215.943 272.291,216.710 272.277 C 217.127 272.270,217.323 271.987,217.323 271.391 C 217.323 270.870,217.523 270.516,217.819 270.516 C 218.091 270.516,218.394 270.319,218.492 270.079 C 218.626 269.748,218.756 269.767,219.027 270.156 C 219.224 270.439,219.432 270.597,219.491 270.506 C 219.550 270.415,219.770 270.026,219.981 269.641 C 220.439 268.806,223.659 268.050,225.083 268.444 C 226.031 268.706,226.422 268.568,226.422 267.971 C 226.422 267.790,226.185 267.732,225.897 267.843 C 225.608 267.954,225.372 267.892,225.372 267.706 C 225.372 267.343,226.058 267.218,227.472 267.322 C 228.085 267.367,228.207 267.294,227.881 267.076 C 227.373 266.737,228.871 266.317,230.588 266.317 C 231.115 266.317,231.735 266.014,232.021 265.617 C 232.549 264.884,233.421 264.666,233.421 265.267 C 233.421 265.459,233.736 265.617,234.121 265.617 C 234.506 265.617,234.821 265.459,234.821 265.267 C 234.821 265.074,235.005 264.917,235.231 264.917 C 235.456 264.917,235.897 264.684,236.212 264.400 C 236.526 264.116,237.168 263.840,237.639 263.788 C 238.110 263.735,238.797 263.420,239.165 263.087 C 239.593 262.701,240.132 262.557,240.657 262.689 C 241.109 262.802,241.713 262.701,241.999 262.463 C 242.286 262.226,242.532 262.169,242.548 262.337 C 242.564 262.505,242.793 262.170,243.057 261.592 C 243.361 260.928,243.544 260.767,243.554 261.155 C 243.575 261.997,244.643 261.930,244.867 261.071 C 245.005 260.544,245.305 260.396,246.105 260.459 C 247.228 260.548,247.831 259.447,246.962 258.894 C 246.722 258.741,247.028 258.626,247.682 258.623 C 248.433 258.619,248.819 258.448,248.819 258.116 C 248.819 257.841,249.166 257.505,249.590 257.370 C 250.014 257.236,250.577 256.910,250.840 256.647 C 251.103 256.383,251.622 256.168,251.994 256.168 C 252.365 256.168,252.668 256.036,252.668 255.874 C 252.668 255.713,253.071 255.397,253.563 255.173 C 254.055 254.949,254.360 254.607,254.240 254.414 C 254.121 254.220,254.325 253.946,254.695 253.803 C 255.474 253.502,257.202 252.209,258.668 250.831 C 259.231 250.302,259.938 249.869,260.239 249.869 C 260.877 249.869,267.258 243.413,267.560 242.462 C 267.672 242.109,268.043 241.820,268.384 241.820 C 268.725 241.820,269.188 241.465,269.414 241.032 C 269.639 240.599,270.137 239.773,270.521 239.195 C 270.904 238.618,271.456 237.633,271.746 237.008 C 272.037 236.382,272.428 235.871,272.614 235.871 C 272.800 235.871,273.051 235.477,273.172 234.996 C 273.293 234.514,273.532 234.121,273.704 234.121 C 273.875 234.121,274.019 233.924,274.024 233.683 C 274.028 233.443,274.339 232.852,274.716 232.371 C 275.092 231.890,275.404 231.220,275.408 230.884 C 275.412 230.547,275.652 230.271,275.941 230.271 C 276.253 230.271,276.465 229.949,276.465 229.474 C 276.465 229.036,276.938 228.160,277.515 227.528 C 278.093 226.896,278.565 226.068,278.565 225.689 C 278.565 224.799,279.494 222.572,279.865 222.572 C 280.285 222.572,281.365 219.910,281.365 218.872 C 281.365 218.380,281.516 217.695,281.700 217.350 C 281.885 217.005,282.069 216.109,282.110 215.360 C 282.151 214.611,282.304 213.837,282.451 213.641 C 282.598 213.444,282.791 212.499,282.880 211.541 C 282.969 210.583,283.293 209.326,283.601 208.749 C 283.909 208.171,284.161 207.354,284.162 206.932 C 284.164 206.511,284.302 206.080,284.471 205.976 C 284.639 205.872,284.725 203.383,284.662 200.444 C 284.574 196.295,284.676 194.635,285.122 193.019 C 285.760 190.703,285.322 181.601,284.363 177.253 L 283.900 175.153 283.733 178.478 C 282.842 196.237,268.386 213.080,250.394 217.320 C 248.661 217.728,246.693 218.221,246.019 218.415 C 245.337 218.612,242.547 218.708,239.720 218.632 C 222.715 218.174,207.176 207.782,200.730 192.558 L 199.881 190.551 199.489 191.601 C 194.818 204.126,181.721 215.023,168.154 217.673 C 166.999 217.899,165.781 218.227,165.447 218.403 C 164.640 218.827,154.851 218.815,153.481 218.387 C 152.890 218.203,150.989 217.720,149.256 217.313 C 117.133 209.773,105.226 169.762,127.924 145.634 C 148.769 123.476,185.652 129.264,198.515 156.712 L 199.904 159.677 201.238 156.839 C 208.365 141.677,223.660 131.934,240.333 131.934 L 245.503 131.934 246.160 129.638 C 246.542 128.306,246.687 127.219,246.506 127.048 C 246.108 126.672,239.528 123.885,239.038 123.885 C 238.836 123.885,238.670 123.740,238.670 123.562 C 238.670 123.385,238.164 123.129,237.544 122.993 C 236.158 122.688,235.171 122.096,235.171 121.569 C 235.171 121.115,233.319 120.662,232.595 120.940 C 232.329 121.042,232.018 120.883,231.905 120.586 C 231.789 120.285,231.064 119.946,230.261 119.818 C 229.471 119.691,228.631 119.413,228.396 119.199 C 228.160 118.985,227.659 118.634,227.282 118.418 C 226.875 118.185,226.639 117.734,226.702 117.307 C 226.778 116.784,226.587 116.558,226.002 116.475 C 225.486 116.401,225.158 116.085,225.088 115.595 C 225.028 115.173,224.713 114.759,224.388 114.673 C 223.858 114.533,223.856 114.513,224.372 114.476 C 225.329 114.409,225.447 113.389,224.585 112.633 C 224.039 112.154,223.931 111.885,224.234 111.759 C 224.475 111.659,224.672 111.402,224.672 111.187 C 224.672 110.915,224.544 110.924,224.252 111.216 C 223.610 111.858,223.169 111.717,223.373 110.936 C 223.492 110.481,223.384 110.236,223.064 110.236 C 222.794 110.236,222.572 110.079,222.572 109.886 C 222.572 109.694,222.341 109.536,222.058 109.536 C 221.776 109.536,221.616 109.339,221.705 109.099 C 222.009 108.269,221.339 107.902,218.752 107.482 C 217.162 107.224,215.996 106.842,215.743 106.495 C 215.515 106.184,215.181 106.022,214.999 106.134 C 214.665 106.341,209.599 104.670,207.916 103.797 C 205.408 102.498,204.021 102.104,203.492 102.543 C 203.174 102.808,202.897 102.760,202.512 102.374 C 202.216 102.079,201.660 101.837,201.275 101.837 C 200.890 101.837,200.339 101.601,200.050 101.312 C 199.743 101.006,198.888 100.787,197.995 100.787 C 197.154 100.787,196.313 100.635,196.127 100.449 C 195.941 100.263,194.880 100.081,193.769 100.045 C 192.659 100.008,191.679 99.864,191.592 99.723 C 191.505 99.582,190.842 99.359,190.118 99.228 C 189.394 99.096,188.171 98.782,187.402 98.529 C 186.632 98.277,185.490 98.148,184.864 98.244 C 184.239 98.339,183.726 98.281,183.725 98.115 C 183.724 97.949,182.582 97.813,181.188 97.813 C 179.794 97.813,178.259 97.723,177.778 97.614 C 177.297 97.505,176.509 97.533,176.028 97.676 M120.560 101.931 C 119.020 103.499,117.080 105.655,116.248 106.722 C 115.417 107.788,114.393 109.001,113.974 109.417 C 113.011 110.370,112.362 111.207,110.215 114.261 C 109.268 115.608,108.331 116.904,108.133 117.140 C 107.292 118.144,105.674 120.728,104.458 123.010 C 103.739 124.357,102.954 125.696,102.711 125.984 C 102.101 126.712,99.319 132.581,97.984 135.958 C 97.375 137.498,96.749 138.915,96.594 139.108 C 96.308 139.462,93.851 146.479,93.622 147.599 C 93.553 147.933,93.313 148.915,93.089 149.781 C 92.427 152.339,92.271 153.494,92.640 153.106 C 93.199 152.517,94.497 148.853,94.592 147.594 C 94.617 147.257,94.762 146.982,94.913 146.982 C 95.064 146.982,95.189 146.785,95.190 146.544 C 95.190 146.304,95.568 145.398,96.029 144.532 C 96.490 143.666,97.256 142.223,97.732 141.326 C 98.207 140.429,99.074 138.987,99.658 138.122 C 100.242 137.256,100.816 136.244,100.934 135.871 C 101.053 135.499,101.529 134.837,101.993 134.401 C 102.460 133.962,102.750 133.382,102.641 133.100 C 102.518 132.779,102.720 132.520,103.188 132.398 C 103.595 132.291,103.853 132.081,103.760 131.930 C 103.667 131.780,103.819 131.569,104.098 131.462 C 104.377 131.355,104.946 130.591,105.363 129.763 C 105.780 128.936,106.621 127.550,107.232 126.684 C 107.844 125.818,108.948 124.109,109.688 122.886 C 110.427 121.662,111.482 120.200,112.034 119.636 C 112.585 119.072,113.036 118.406,113.036 118.154 C 113.036 117.903,113.433 117.517,113.918 117.296 C 114.403 117.075,114.961 116.538,115.158 116.102 C 115.742 114.811,116.309 113.970,117.312 112.912 C 117.832 112.363,118.603 111.181,119.025 110.287 C 119.448 109.393,119.984 108.425,120.217 108.136 C 120.451 107.848,120.651 107.375,120.661 107.087 C 120.672 106.798,120.713 105.696,120.753 104.637 C 120.792 103.578,120.922 102.633,121.042 102.537 C 121.324 102.311,123.613 99.031,123.469 99.059 C 123.409 99.071,122.100 100.364,120.560 101.931 M236.094 120.978 C 235.700 121.372,235.854 121.785,236.395 121.785 C 236.684 121.785,236.920 121.637,236.920 121.455 C 236.920 121.014,236.374 120.698,236.094 120.978 M91.571 156.182 C 91.230 157.570,90.881 159.178,90.795 159.755 C 90.709 160.332,90.567 160.997,90.479 161.231 C 90.391 161.466,90.441 161.732,90.589 161.824 C 90.737 161.916,91.054 160.858,91.293 159.473 C 91.533 158.088,91.933 156.377,92.183 155.670 C 92.433 154.963,92.537 154.221,92.414 154.021 C 92.290 153.822,91.911 154.794,91.571 156.182 M89.764 165.529 C 89.629 166.325,89.598 167.055,89.694 167.151 C 89.791 167.248,89.979 166.675,90.114 165.879 C 90.248 165.083,90.279 164.354,90.183 164.257 C 90.087 164.161,89.898 164.733,89.764 165.529 M89.374 242.520 C 89.500 244.348,89.744 246.395,89.916 247.069 C 90.541 249.515,91.277 251.834,92.026 253.718 C 92.447 254.777,92.915 256.037,93.067 256.518 C 93.551 258.054,95.638 262.117,95.944 262.117 C 96.106 262.117,96.238 262.270,96.238 262.457 C 96.238 262.858,98.394 266.089,98.775 266.258 C 98.920 266.323,99.038 266.569,99.038 266.806 C 99.038 267.809,107.592 276.025,111.150 278.439 C 113.567 280.080,120.231 283.379,122.660 284.138 C 126.837 285.443,127.147 285.523,129.484 285.896 C 132.590 286.392,266.763 286.405,269.665 285.910 C 274.241 285.129,278.461 283.687,282.765 281.434 C 284.786 280.376,286.833 279.305,287.314 279.053 C 287.795 278.801,288.898 277.945,289.764 277.151 C 291.199 275.834,291.154 275.531,289.708 276.769 C 288.847 277.507,287.664 277.633,287.664 276.988 C 287.664 276.390,286.716 276.311,285.424 276.802 C 284.858 277.018,284.464 277.018,284.331 276.802 C 284.217 276.617,283.857 276.477,283.531 276.490 C 283.055 276.510,283.076 276.568,283.640 276.792 C 284.207 277.016,284.075 277.105,282.940 277.261 C 282.170 277.367,280.280 277.791,278.740 278.204 C 277.200 278.617,275.468 279.037,274.891 279.138 C 274.313 279.238,272.942 279.612,271.844 279.969 C 269.297 280.795,263.939 281.599,257.918 282.058 C 249.090 282.732,248.295 282.796,244.794 283.124 C 231.015 284.414,219.132 284.842,195.626 284.892 C 170.226 284.946,164.156 284.631,151.181 282.587 C 150.507 282.480,148.618 282.338,146.982 282.271 C 145.346 282.203,143.121 282.034,142.037 281.896 C 140.859 281.746,139.800 281.788,139.401 282.002 C 137.960 282.773,130.188 283.329,129.087 282.739 C 128.737 282.552,127.542 282.338,126.430 282.262 C 124.231 282.113,121.963 281.319,122.391 280.848 C 122.539 280.686,122.389 280.650,122.058 280.769 C 121.728 280.887,121.364 280.834,121.250 280.650 C 121.137 280.466,120.590 280.315,120.035 280.315 C 119.480 280.315,118.929 280.157,118.810 279.965 C 118.691 279.773,118.365 279.615,118.086 279.615 C 117.564 279.615,114.536 278.287,113.911 277.783 C 113.718 277.628,111.952 276.430,109.987 275.120 C 106.540 272.824,104.426 270.704,103.131 268.241 C 102.827 267.664,102.182 266.742,101.697 266.191 C 101.212 265.641,100.067 263.673,99.151 261.817 C 98.236 259.961,97.260 258.270,96.984 258.058 C 96.707 257.847,96.593 257.493,96.730 257.271 C 96.867 257.049,96.820 256.868,96.626 256.868 C 96.308 256.868,94.138 252.747,94.138 252.142 C 94.138 251.804,91.821 245.946,90.783 243.659 C 90.324 242.649,89.860 241.315,89.751 240.695 C 89.343 238.382,89.153 239.302,89.374 242.520 M123.661 250.744 C 123.796 251.094,123.646 251.269,123.211 251.269 C 122.853 251.269,122.469 251.032,122.358 250.744 C 122.224 250.393,122.373 250.219,122.808 250.219 C 123.167 250.219,123.550 250.455,123.661 250.744 M119.453 251.853 C 119.582 251.982,119.457 252.440,119.174 252.871 C 118.736 253.540,118.733 253.681,119.155 253.843 C 119.481 253.968,119.583 253.860,119.455 253.525 C 119.335 253.212,119.475 253.018,119.823 253.018 C 120.152 253.018,120.385 252.728,120.385 252.318 C 120.385 251.899,120.152 251.619,119.802 251.619 C 119.481 251.619,119.324 251.724,119.453 251.853 M119.335 254.768 C 119.335 254.961,119.659 255.118,120.056 255.118 C 120.452 255.118,120.679 254.961,120.560 254.768 C 120.441 254.576,120.117 254.418,119.839 254.418 C 119.562 254.418,119.335 254.576,119.335 254.768 M125.984 256.063 C 125.984 256.713,125.871 256.895,125.623 256.646 C 125.424 256.448,125.362 256.022,125.485 255.702 C 125.809 254.857,125.984 254.983,125.984 256.063 M128.067 258.056 C 128.724 258.970,128.796 260.017,128.200 260.017 C 127.944 260.017,127.753 259.899,127.775 259.755 C 127.887 259.050,127.688 258.618,127.253 258.618 C 126.974 258.618,126.772 258.253,126.772 257.749 C 126.772 256.791,127.236 256.901,128.067 258.056 M299.016 268.301 C 298.477 269.008,298.214 269.476,298.433 269.341 C 298.881 269.064,300.396 267.017,300.153 267.017 C 300.066 267.017,299.555 267.595,299.016 268.301 M294.596 272.799 C 293.693 273.661,293.070 274.366,293.211 274.366 C 293.352 274.366,294.163 273.657,295.013 272.791 C 297.006 270.761,296.727 270.766,294.596 272.799 " stroke="none" fill="#ee4e8c" fill-rule="evenodd"></path><path id="path3" d="M181.895 90.837 C 181.838 90.895,180.423 90.974,178.751 91.015 C 171.896 91.179,160.963 93.913,152.968 97.462 C 145.522 100.766,140.000 104.132,133.508 109.323 C 132.161 110.401,130.961 111.283,130.842 111.284 C 130.614 111.286,130.765 109.329,131.051 108.566 C 131.143 108.321,130.946 107.846,130.613 107.510 C 130.273 107.167,130.009 106.367,130.009 105.681 C 130.009 105.011,129.729 104.081,129.386 103.615 C 128.960 103.034,128.877 102.654,129.124 102.407 C 129.645 101.886,129.566 101.487,128.942 101.487 C 127.384 101.487,129.245 95.160,131.562 92.572 C 133.049 90.912,132.356 91.411,128.633 94.677 C 124.593 98.222,121.883 100.978,121.619 101.809 C 121.492 102.210,121.257 102.537,121.097 102.537 C 120.938 102.537,120.781 103.443,120.748 104.549 C 120.715 105.656,120.678 106.798,120.665 107.087 C 120.652 107.375,120.451 107.848,120.217 108.136 C 119.984 108.425,119.448 109.393,119.025 110.287 C 118.603 111.181,117.832 112.363,117.312 112.912 C 116.309 113.970,115.742 114.811,115.158 116.102 C 114.961 116.538,114.403 117.075,113.918 117.296 C 113.433 117.517,113.036 117.903,113.036 118.154 C 113.036 118.406,112.585 119.072,112.034 119.636 C 111.482 120.200,110.427 121.662,109.688 122.886 C 108.948 124.109,107.844 125.818,107.232 126.684 C 106.621 127.550,105.780 128.936,105.363 129.763 C 104.946 130.591,104.377 131.355,104.098 131.462 C 103.819 131.569,103.667 131.780,103.760 131.930 C 103.853 132.081,103.595 132.291,103.188 132.398 C 102.720 132.520,102.518 132.779,102.641 133.100 C 102.750 133.382,102.460 133.962,101.993 134.401 C 101.529 134.837,101.053 135.499,100.934 135.871 C 100.816 136.244,100.242 137.256,99.658 138.122 C 99.074 138.987,98.207 140.429,97.732 141.326 C 97.256 142.223,96.490 143.666,96.029 144.532 C 95.568 145.398,95.190 146.304,95.190 146.544 C 95.189 146.785,95.064 146.982,94.913 146.982 C 94.762 146.982,94.621 147.257,94.600 147.594 C 94.528 148.740,93.718 151.084,92.664 153.193 C 92.448 153.626,92.370 154.079,92.492 154.201 C 92.614 154.323,92.572 154.687,92.400 155.010 C 91.975 155.803,90.017 165.550,89.759 168.154 C 89.377 172.013,89.185 175.121,89.339 174.978 C 89.443 174.882,89.613 173.858,89.719 172.703 C 89.824 171.549,90.168 169.265,90.484 167.629 C 90.801 165.993,91.106 164.339,91.162 163.955 C 91.258 163.300,92.847 158.291,93.327 157.130 C 93.446 156.842,93.585 156.408,93.635 156.167 C 93.753 155.603,95.253 152.461,95.514 152.231 C 95.780 151.997,96.646 149.720,96.679 149.169 C 96.693 148.928,96.817 148.731,96.955 148.731 C 97.194 148.731,97.693 147.558,97.775 146.807 C 97.796 146.614,97.892 146.378,97.988 146.282 C 98.395 145.875,99.738 143.842,99.738 143.632 C 99.738 143.367,102.532 139.931,103.057 139.550 C 103.584 139.168,104.361 139.229,104.112 139.633 C 103.993 139.825,104.142 139.983,104.444 139.983 C 104.758 139.983,105.234 140.586,105.557 141.393 C 106.004 142.510,106.257 142.759,106.779 142.594 C 107.226 142.452,107.437 142.556,107.437 142.917 C 107.437 143.210,107.988 143.711,108.661 144.030 C 110.159 144.741,110.170 144.254,108.512 150.816 C 101.948 176.803,100.299 203.255,103.919 224.497 C 105.241 232.253,107.355 241.099,108.518 243.745 C 109.620 246.249,110.826 249.519,110.649 249.519 C 110.532 249.519,110.091 249.086,109.668 248.556 C 109.245 248.027,108.771 247.721,108.615 247.876 C 108.459 248.030,108.540 248.285,108.793 248.442 C 109.434 248.838,109.140 250.009,108.364 250.159 C 106.943 250.433,105.456 247.813,106.545 246.955 C 106.772 246.776,106.712 246.720,106.387 246.807 C 105.371 247.081,105.606 248.414,106.955 250.028 C 108.359 251.707,108.945 254.768,107.863 254.768 C 107.606 254.768,107.492 254.925,107.611 255.117 C 107.754 255.349,107.519 255.349,106.909 255.117 C 105.723 254.666,105.687 254.672,105.687 255.293 C 105.687 255.582,105.520 255.818,105.316 255.818 C 105.112 255.818,105.036 255.671,105.147 255.492 C 105.258 255.313,105.188 255.068,104.993 254.947 C 104.794 254.824,104.637 255.055,104.637 255.468 C 104.637 255.876,104.486 256.116,104.302 256.002 C 104.118 255.889,104.069 255.525,104.193 255.194 C 104.384 254.684,104.335 254.661,103.865 255.043 C 103.407 255.414,103.211 255.392,102.733 254.914 C 102.414 254.595,102.066 254.423,101.958 254.530 C 101.617 254.872,100.403 253.489,100.343 252.690 C 100.311 252.269,99.847 251.433,99.311 250.833 C 98.776 250.233,98.338 249.597,98.338 249.418 C 98.338 249.240,98.095 249.187,97.799 249.301 C 97.483 249.422,97.283 249.329,97.315 249.076 C 97.468 247.885,97.214 247.203,96.500 246.890 C 96.067 246.700,95.713 246.347,95.713 246.107 C 95.713 245.866,95.578 245.709,95.414 245.757 C 95.049 245.864,92.038 239.598,92.038 238.731 C 92.038 238.390,91.850 237.922,91.620 237.691 C 91.389 237.461,91.091 236.445,90.957 235.434 C 90.822 234.423,90.550 232.651,90.350 231.496 C 90.151 230.341,89.918 228.721,89.833 227.895 C 89.439 224.095,89.195 226.533,89.331 232.896 C 89.493 240.503,89.554 240.951,90.786 243.665 C 91.822 245.948,94.138 251.804,94.138 252.142 C 94.138 252.747,96.308 256.868,96.626 256.868 C 96.820 256.868,96.867 257.049,96.730 257.271 C 96.593 257.493,96.707 257.847,96.984 258.058 C 97.260 258.270,98.236 259.961,99.151 261.817 C 100.067 263.673,101.212 265.641,101.697 266.191 C 102.182 266.742,102.827 267.664,103.131 268.241 C 104.426 270.704,106.540 272.824,109.987 275.120 C 111.952 276.430,113.718 277.628,113.911 277.783 C 114.536 278.287,117.564 279.615,118.086 279.615 C 118.365 279.615,118.691 279.773,118.810 279.965 C 118.929 280.157,119.480 280.315,120.035 280.315 C 120.590 280.315,121.137 280.466,121.250 280.650 C 121.364 280.834,121.728 280.887,122.058 280.769 C 122.389 280.650,122.539 280.686,122.391 280.848 C 121.963 281.319,124.231 282.113,126.430 282.262 C 127.542 282.338,128.737 282.552,129.087 282.739 C 130.188 283.329,137.960 282.773,139.401 282.002 C 139.800 281.788,140.859 281.746,142.037 281.896 C 143.121 282.034,145.346 282.203,146.982 282.271 C 148.618 282.338,150.507 282.480,151.181 282.587 C 164.156 284.631,170.226 284.946,195.626 284.892 C 219.132 284.842,231.015 284.414,244.794 283.124 C 248.295 282.796,249.090 282.732,257.918 282.058 C 263.939 281.599,269.297 280.795,271.844 279.969 C 272.942 279.612,274.313 279.238,274.891 279.138 C 275.468 279.037,277.200 278.617,278.740 278.204 C 280.280 277.791,282.170 277.367,282.940 277.261 C 284.075 277.105,284.207 277.016,283.640 276.792 C 283.076 276.568,283.055 276.510,283.531 276.490 C 283.857 276.477,284.217 276.617,284.331 276.802 C 284.464 277.018,284.858 277.018,285.424 276.802 C 286.716 276.311,287.664 276.390,287.664 276.988 C 287.664 277.624,288.838 277.510,289.693 276.791 C 290.021 276.516,290.750 275.993,291.314 275.629 C 293.946 273.930,299.819 267.666,301.850 264.392 L 302.502 263.342 301.639 264.113 C 301.042 264.647,300.620 264.788,300.266 264.569 C 299.949 264.373,299.671 264.392,299.530 264.619 C 299.122 265.280,298.490 262.813,298.881 262.083 C 299.124 261.628,299.123 261.417,298.875 261.417 C 298.676 261.417,298.513 260.976,298.513 260.437 C 298.513 259.899,298.316 259.245,298.075 258.986 C 297.725 258.609,297.725 258.564,298.075 258.762 C 298.797 259.170,298.575 258.125,297.843 257.668 C 297.306 257.333,297.088 257.351,296.750 257.758 C 296.517 258.039,296.028 258.268,295.663 258.268 C 295.297 258.268,294.825 258.647,294.614 259.112 C 294.350 259.690,293.829 260.028,292.959 260.187 C 292.260 260.315,291.365 260.627,290.969 260.882 C 290.573 261.136,289.313 261.433,288.169 261.540 C 287.025 261.647,285.853 261.757,285.564 261.784 C 285.276 261.812,284.375 262.074,283.564 262.368 C 282.752 262.663,281.689 262.827,281.202 262.734 C 280.714 262.641,280.315 262.709,280.315 262.886 C 280.315 263.063,280.168 263.117,279.988 263.006 C 279.808 262.895,280.217 261.823,280.898 260.623 C 283.888 255.354,285.780 251.125,287.477 245.921 C 288.513 242.739,288.514 242.737,287.868 242.985 C 287.257 243.220,286.806 242.188,287.303 241.691 C 287.846 241.148,287.737 240.070,287.139 240.070 C 286.850 240.070,286.614 239.896,286.614 239.683 C 286.614 239.470,286.817 239.373,287.065 239.468 C 287.403 239.598,287.519 239.076,287.528 237.377 C 287.535 236.011,287.706 235.011,287.958 234.855 C 288.439 234.558,289.053 232.755,289.281 230.971 C 289.367 230.297,289.654 229.582,289.919 229.380 C 290.185 229.179,290.567 228.121,290.769 227.030 C 290.970 225.938,291.481 224.292,291.903 223.371 C 292.326 222.451,292.665 221.461,292.658 221.172 C 292.651 220.884,292.873 219.466,293.151 218.023 C 293.719 215.083,294.005 212.182,294.024 209.183 C 294.031 208.067,294.215 207.052,294.437 206.909 C 295.055 206.509,294.752 201.575,294.110 201.575 C 293.763 201.575,293.605 201.125,293.585 200.087 C 293.570 199.269,293.491 197.340,293.410 195.801 C 293.329 194.261,293.187 190.009,293.094 186.352 C 292.760 173.144,292.541 171.387,291.187 171.033 C 290.740 170.916,290.460 170.392,290.282 169.342 C 290.141 168.504,289.802 167.479,289.530 167.063 C 289.257 166.647,288.904 165.541,288.746 164.605 C 287.697 158.409,287.179 155.781,286.833 154.901 L 286.439 153.896 282.624 154.108 C 278.035 154.363,278.334 154.100,279.553 156.818 C 280.912 159.846,281.906 162.766,282.577 165.704 C 282.886 167.052,283.290 168.723,283.476 169.419 C 283.662 170.115,283.818 171.611,283.822 172.744 C 283.826 173.877,284.054 175.827,284.330 177.078 C 285.320 181.574,285.771 190.663,285.122 193.019 C 284.676 194.635,284.574 196.295,284.662 200.444 C 284.725 203.383,284.639 205.872,284.471 205.976 C 284.302 206.080,284.164 206.511,284.162 206.932 C 284.161 207.354,283.909 208.171,283.601 208.749 C 283.293 209.326,282.969 210.583,282.880 211.541 C 282.791 212.499,282.598 213.444,282.451 213.641 C 282.304 213.837,282.151 214.611,282.110 215.360 C 282.069 216.109,281.885 217.005,281.700 217.350 C 281.516 217.695,281.365 218.380,281.365 218.872 C 281.365 219.910,280.285 222.572,279.865 222.572 C 279.494 222.572,278.565 224.799,278.565 225.689 C 278.565 226.068,278.093 226.896,277.515 227.528 C 276.938 228.160,276.465 229.036,276.465 229.474 C 276.465 229.949,276.253 230.271,275.941 230.271 C 275.652 230.271,275.412 230.547,275.408 230.884 C 275.404 231.220,275.092 231.890,274.716 232.371 C 274.339 232.852,274.028 233.443,274.024 233.683 C 274.019 233.924,273.875 234.121,273.704 234.121 C 273.532 234.121,273.293 234.514,273.172 234.996 C 273.051 235.477,272.800 235.871,272.614 235.871 C 272.428 235.871,272.037 236.382,271.746 237.008 C 271.456 237.633,270.904 238.618,270.521 239.195 C 270.137 239.773,269.639 240.599,269.414 241.032 C 269.188 241.465,268.725 241.820,268.384 241.820 C 268.043 241.820,267.672 242.109,267.560 242.462 C 267.258 243.413,260.877 249.869,260.239 249.869 C 259.938 249.869,259.231 250.302,258.668 250.831 C 257.202 252.209,255.474 253.502,254.695 253.803 C 254.325 253.946,254.121 254.220,254.240 254.414 C 254.360 254.607,254.055 254.949,253.563 255.173 C 253.071 255.397,252.668 255.713,252.668 255.874 C 252.668 256.036,252.365 256.168,251.994 256.168 C 251.622 256.168,251.103 256.383,250.840 256.647 C 250.577 256.910,250.014 257.236,249.590 257.370 C 249.166 257.505,248.819 257.841,248.819 258.116 C 248.819 258.448,248.433 258.619,247.682 258.623 C 247.028 258.626,246.722 258.741,246.962 258.894 C 247.831 259.447,247.228 260.548,246.105 260.459 C 245.305 260.396,245.005 260.544,244.867 261.071 C 244.643 261.930,243.575 261.997,243.554 261.155 C 243.544 260.767,243.361 260.928,243.057 261.592 C 242.793 262.170,242.564 262.505,242.548 262.337 C 242.532 262.169,242.286 262.226,241.999 262.463 C 241.713 262.701,241.109 262.802,240.657 262.689 C 240.132 262.557,239.593 262.701,239.165 263.087 C 238.797 263.420,238.110 263.735,237.639 263.788 C 237.168 263.840,236.526 264.116,236.212 264.400 C 235.897 264.684,235.456 264.917,235.231 264.917 C 235.005 264.917,234.821 265.074,234.821 265.267 C 234.821 265.459,234.506 265.617,234.121 265.617 C 233.736 265.617,233.421 265.459,233.421 265.267 C 233.421 264.666,232.549 264.884,232.021 265.617 C 231.735 266.014,231.115 266.317,230.588 266.317 C 228.871 266.317,227.373 266.737,227.881 267.076 C 228.207 267.294,228.085 267.367,227.472 267.322 C 226.058 267.218,225.372 267.343,225.372 267.706 C 225.372 267.892,225.608 267.954,225.897 267.843 C 226.185 267.732,226.422 267.790,226.422 267.971 C 226.422 268.568,226.031 268.706,225.083 268.444 C 223.659 268.050,220.439 268.806,219.981 269.641 C 219.770 270.026,219.550 270.415,219.491 270.506 C 219.432 270.597,219.224 270.439,219.027 270.156 C 218.756 269.767,218.626 269.748,218.492 270.079 C 218.394 270.319,218.091 270.516,217.819 270.516 C 217.523 270.516,217.323 270.870,217.323 271.391 C 217.323 271.987,217.127 272.270,216.710 272.277 C 215.943 272.291,215.075 272.953,214.775 273.753 C 214.649 274.090,214.328 274.366,214.063 274.366 C 213.799 274.366,213.297 274.681,212.948 275.066 C 212.294 275.788,212.643 275.939,214.786 275.860 C 215.026 275.851,215.223 275.978,215.223 276.143 C 215.223 276.308,215.459 276.353,215.748 276.242 C 216.037 276.131,216.273 276.176,216.273 276.341 C 216.273 276.506,217.100 276.668,218.110 276.700 C 222.011 276.824,225.022 277.230,225.027 277.633 C 225.031 277.932,225.103 277.929,225.299 277.620 C 225.647 277.073,232.500 277.246,233.191 277.820 C 233.459 278.042,233.974 278.197,234.337 278.164 C 235.512 278.058,237.392 278.210,237.205 278.397 C 237.105 278.497,236.252 278.651,235.310 278.739 C 229.725 279.263,225.042 279.623,221.347 279.813 C 219.038 279.931,214.864 280.148,212.073 280.293 C 209.283 280.438,202.826 280.596,197.725 280.643 C 192.625 280.690,186.719 280.795,184.602 280.877 C 173.111 281.323,170.030 281.353,167.804 281.043 C 165.012 280.654,161.444 280.352,157.130 280.141 C 153.650 279.970,150.176 279.655,149.431 279.443 C 149.143 279.361,148.040 279.214,146.982 279.116 C 145.923 279.018,144.269 278.769,143.307 278.564 C 142.345 278.358,140.891 278.097,140.077 277.983 C 139.194 277.859,138.686 277.631,138.819 277.417 C 138.941 277.219,138.875 277.159,138.673 277.284 C 138.471 277.409,137.856 277.277,137.307 276.991 C 136.757 276.704,136.107 276.469,135.862 276.468 C 135.616 276.466,134.544 276.159,133.478 275.785 C 132.413 275.410,131.331 275.185,131.073 275.284 C 130.815 275.382,130.500 275.295,130.373 275.089 C 130.246 274.882,129.464 274.405,128.637 274.028 C 127.809 273.652,126.867 272.938,126.543 272.443 C 126.219 271.949,125.803 271.637,125.619 271.751 C 125.435 271.864,125.284 271.642,125.284 271.257 C 125.284 270.871,124.977 270.341,124.601 270.077 C 124.225 269.814,123.944 269.254,123.976 268.833 C 124.037 268.023,124.398 267.831,124.759 268.416 C 124.878 268.609,125.145 268.766,125.352 268.766 C 125.559 268.766,124.770 267.782,123.598 266.579 C 119.992 262.877,116.635 258.256,117.056 257.574 C 117.178 257.378,117.080 257.218,116.839 257.218 C 116.588 257.218,116.671 257.021,117.035 256.754 C 117.968 256.072,118.860 256.265,119.698 257.330 C 120.107 257.849,120.586 258.185,120.763 258.075 C 120.940 257.966,121.085 258.067,121.085 258.301 C 121.085 258.534,121.400 258.362,121.785 257.918 C 122.380 257.231,122.485 257.202,122.485 257.727 C 122.485 258.161,122.665 258.280,123.097 258.129 C 123.680 257.926,123.680 257.939,123.097 258.393 C 122.760 258.655,122.487 259.089,122.490 259.356 C 122.495 259.768,122.542 259.769,122.801 259.360 C 122.969 259.095,123.266 258.977,123.461 259.097 C 123.657 259.218,123.981 258.845,124.182 258.267 C 124.383 257.690,124.438 257.215,124.304 257.212 C 124.169 257.210,124.262 257.079,124.509 256.922 C 125.109 256.541,124.669 255.458,124.016 255.708 C 123.702 255.829,123.545 255.719,123.608 255.424 C 123.664 255.159,123.502 254.986,123.248 255.039 C 122.934 255.104,122.822 254.823,122.898 254.164 C 122.971 253.531,123.187 253.232,123.519 253.305 C 123.799 253.366,123.602 252.990,123.081 252.470 C 122.561 251.949,122.135 251.308,122.135 251.046 C 122.135 250.783,122.003 250.569,121.841 250.569 C 121.680 250.569,121.246 249.939,120.879 249.170 C 120.511 248.401,120.038 247.835,119.827 247.913 C 119.595 247.999,119.505 247.738,119.599 247.248 C 119.708 246.675,119.436 246.137,118.663 245.399 C 117.974 244.740,117.651 244.154,117.785 243.805 C 117.902 243.502,117.870 243.049,117.714 242.799 C 117.558 242.549,117.382 242.035,117.324 241.657 C 117.186 240.771,116.276 239.383,115.685 239.156 C 115.360 239.031,115.279 238.512,115.407 237.373 C 115.519 236.384,115.458 235.846,115.250 235.975 C 115.049 236.099,114.977 235.743,115.072 235.094 C 115.215 234.122,114.381 231.849,113.688 231.321 C 113.562 231.225,113.274 230.437,113.049 229.571 C 112.823 228.705,111.806 225.556,110.789 222.572 C 109.771 219.589,108.588 215.573,108.160 213.648 C 107.732 211.724,107.249 209.834,107.088 209.449 C 106.590 208.266,106.365 206.473,106.163 202.101 C 106.057 199.792,105.820 197.624,105.637 197.282 C 105.454 196.940,105.393 196.518,105.501 196.342 C 105.610 196.167,105.538 195.925,105.343 195.804 C 105.147 195.683,104.987 195.071,104.987 194.444 C 104.987 193.816,104.751 192.507,104.462 191.534 C 103.374 187.873,103.699 178.118,105.188 169.729 C 105.478 168.093,105.947 165.416,106.229 163.780 C 106.645 161.363,107.711 156.389,108.657 152.444 C 112.339 137.083,118.045 125.829,127.196 115.874 C 129.255 113.634,131.168 112.337,132.423 112.330 C 133.036 112.326,134.165 111.878,135.017 111.301 C 135.847 110.738,137.343 110.019,138.342 109.701 C 139.340 109.384,140.830 108.821,141.652 108.450 C 142.474 108.079,143.970 107.600,144.977 107.386 C 145.983 107.171,147.653 106.622,148.687 106.166 C 149.722 105.710,150.701 105.337,150.864 105.337 C 151.027 105.337,152.071 104.920,153.183 104.412 C 156.292 102.989,159.447 101.866,162.905 100.949 C 164.637 100.490,166.898 99.801,167.929 99.418 C 168.960 99.034,171.007 98.540,172.478 98.320 C 173.949 98.100,175.547 97.830,176.028 97.721 C 176.509 97.612,177.048 97.558,177.225 97.600 C 177.402 97.643,178.937 97.708,180.635 97.745 C 182.334 97.782,183.724 97.949,183.725 98.115 C 183.726 98.281,184.239 98.339,184.864 98.244 C 185.490 98.148,186.632 98.277,187.402 98.529 C 188.171 98.782,189.394 99.096,190.118 99.228 C 190.842 99.359,191.505 99.582,191.592 99.723 C 191.679 99.864,192.659 100.008,193.769 100.045 C 194.880 100.081,195.941 100.263,196.127 100.449 C 196.313 100.635,197.154 100.787,197.995 100.787 C 198.888 100.787,199.743 101.006,200.050 101.312 C 200.339 101.601,200.890 101.837,201.275 101.837 C 201.660 101.837,202.216 102.079,202.512 102.374 C 202.897 102.760,203.174 102.808,203.492 102.543 C 204.021 102.104,205.408 102.498,207.916 103.797 C 209.599 104.670,214.665 106.341,214.999 106.134 C 215.181 106.022,215.515 106.184,215.743 106.495 C 215.996 106.842,217.162 107.224,218.752 107.482 C 221.339 107.902,222.009 108.269,221.705 109.099 C 221.616 109.339,221.776 109.536,222.058 109.536 C 222.341 109.536,222.572 109.694,222.572 109.886 C 222.572 110.079,222.794 110.236,223.064 110.236 C 223.384 110.236,223.492 110.481,223.373 110.936 C 223.169 111.717,223.610 111.858,224.252 111.216 C 224.544 110.924,224.672 110.915,224.672 111.187 C 224.672 111.402,224.475 111.659,224.234 111.759 C 223.931 111.885,224.039 112.154,224.585 112.633 C 225.439 113.382,225.341 114.296,224.380 114.550 C 223.841 114.693,223.841 114.708,224.385 114.745 C 224.712 114.768,225.023 115.135,225.085 115.573 C 225.158 116.085,225.478 116.400,226.002 116.475 C 226.587 116.558,226.778 116.784,226.702 117.307 C 226.639 117.734,226.875 118.185,227.282 118.418 C 227.659 118.634,228.160 118.985,228.396 119.199 C 228.631 119.413,229.471 119.691,230.261 119.818 C 231.064 119.946,231.789 120.285,231.905 120.586 C 232.018 120.883,232.329 121.042,232.595 120.940 C 233.319 120.662,235.171 121.115,235.171 121.569 C 235.171 122.096,236.158 122.688,237.544 122.993 C 238.164 123.129,238.670 123.385,238.670 123.562 C 238.670 123.740,238.836 123.885,239.038 123.885 C 239.528 123.885,246.108 126.672,246.506 127.048 C 247.366 127.861,245.563 131.895,244.279 132.033 C 243.220 132.147,243.277 132.174,244.676 132.225 C 248.727 132.371,255.600 134.299,260.443 136.648 L 262.992 137.885 260.334 135.346 C 258.564 133.657,257.529 132.362,257.237 131.473 C 256.992 130.728,256.460 129.983,256.034 129.789 C 255.613 129.597,254.827 128.741,254.287 127.887 C 253.746 127.033,253.161 126.334,252.986 126.334 C 252.811 126.334,252.668 126.115,252.668 125.847 C 252.668 125.579,252.432 125.269,252.143 125.158 C 251.855 125.047,251.619 124.558,251.619 124.070 C 251.619 123.516,251.422 123.185,251.094 123.185 C 250.805 123.185,250.569 122.962,250.569 122.689 C 250.569 122.416,250.372 122.127,250.131 122.045 C 249.613 121.870,250.174 119.582,251.952 114.612 C 252.999 111.685,253.035 111.440,252.467 111.113 C 252.130 110.919,251.566 110.486,251.212 110.149 C 250.858 109.812,250.428 109.536,250.256 109.536 C 250.084 109.536,249.437 109.064,248.819 108.486 C 248.201 107.909,247.604 107.437,247.492 107.437 C 247.381 107.437,246.964 107.137,246.567 106.771 C 245.919 106.174,244.935 105.596,240.770 103.367 C 240.097 103.007,239.467 102.625,239.370 102.519 C 239.093 102.213,236.719 101.155,234.723 100.447 C 233.718 100.090,231.321 99.234,229.396 98.545 C 227.472 97.855,225.708 97.361,225.476 97.447 C 225.121 97.579,222.675 96.742,219.948 95.555 C 219.563 95.387,218.303 95.085,217.148 94.883 C 215.993 94.680,214.418 94.403,213.648 94.268 C 212.878 94.132,212.108 94.055,211.935 94.096 C 211.763 94.138,210.897 93.939,210.011 93.653 C 207.222 92.756,198.946 91.546,191.776 90.989 C 187.497 90.656,182.158 90.574,181.895 90.837 M236.920 121.455 C 236.920 121.637,236.684 121.785,236.395 121.785 C 235.854 121.785,235.700 121.372,236.094 120.978 C 236.374 120.698,236.920 121.014,236.920 121.455 M156.884 132.194 C 158.384 132.260,160.747 132.259,162.133 132.193 C 163.520 132.127,162.292 132.073,159.405 132.073 C 156.518 132.074,155.383 132.128,156.884 132.194 M233.596 132.289 C 232.981 132.448,233.633 132.483,235.171 132.374 C 236.614 132.271,237.861 132.129,237.941 132.060 C 238.211 131.826,234.657 132.013,233.596 132.289 M229.046 133.333 C 228.155 133.717,229.075 133.717,230.271 133.333 C 230.975 133.108,231.009 133.051,230.446 133.043 C 230.061 133.037,229.431 133.168,229.046 133.333 M224.497 134.920 C 223.622 135.342,223.593 135.391,224.322 135.212 C 225.314 134.970,226.428 134.402,225.897 134.410 C 225.704 134.412,225.074 134.642,224.497 134.920 M177.107 135.916 C 177.464 136.241,180.927 137.876,180.927 137.720 C 180.927 137.522,177.585 135.783,177.206 135.783 C 177.071 135.783,177.027 135.843,177.107 135.916 M265.617 139.633 C 265.617 140.048,266.225 140.048,267.192 139.633 C 267.778 139.381,267.707 139.328,266.754 139.307 C 266.129 139.294,265.617 139.440,265.617 139.633 M128.784 144.707 C 127.350 146.150,126.255 147.332,126.352 147.332 C 126.448 147.332,127.700 146.150,129.134 144.707 C 130.568 143.263,131.662 142.082,131.566 142.082 C 131.470 142.082,130.218 143.263,128.784 144.707 M187.227 142.178 C 187.227 142.231,188.447 143.452,189.939 144.891 L 192.651 147.507 190.035 144.794 C 187.605 142.275,187.227 141.923,187.227 142.178 M209.605 144.794 L 208.399 146.107 209.711 144.901 C 210.933 143.778,211.185 143.482,210.917 143.482 C 210.859 143.482,210.268 144.073,209.605 144.794 M125.235 148.644 C 124.229 149.859,123.802 150.481,123.975 150.481 C 124.072 150.481,124.572 149.930,125.086 149.256 C 126.039 148.006,126.155 147.534,125.235 148.644 M121.435 154.331 C 121.042 155.101,120.799 155.731,120.896 155.731 C 120.992 155.731,121.392 155.101,121.785 154.331 C 122.178 153.561,122.420 152.931,122.324 152.931 C 122.228 152.931,121.828 153.561,121.435 154.331 M116.281 170.779 C 116.281 171.645,116.349 171.999,116.432 171.566 C 116.516 171.133,116.516 170.424,116.432 169.991 C 116.349 169.558,116.281 169.913,116.281 170.779 M116.281 179.528 C 116.281 180.394,116.349 180.748,116.432 180.315 C 116.516 179.882,116.516 179.173,116.432 178.740 C 116.349 178.307,116.281 178.661,116.281 179.528 M283.336 180.701 C 283.189 181.442,283.151 182.130,283.250 182.229 C 283.515 182.494,283.899 180.739,283.740 179.993 C 283.657 179.606,283.497 179.887,283.336 180.701 M281.987 186.580 C 281.663 187.788,281.455 188.833,281.524 188.902 C 281.713 189.091,282.820 185.118,282.689 184.724 C 282.626 184.536,282.310 185.372,281.987 186.580 M118.136 188.626 C 118.265 189.108,118.516 189.738,118.694 190.026 C 118.920 190.391,118.947 190.284,118.785 189.676 C 118.656 189.195,118.405 188.565,118.226 188.276 C 118.001 187.912,117.973 188.018,118.136 188.626 M207.174 203.084 C 207.174 203.144,207.686 203.656,208.311 204.221 L 209.449 205.249 208.421 204.112 C 207.463 203.052,207.174 202.814,207.174 203.084 M270.856 205.687 L 268.591 208.049 270.954 205.784 C 272.253 204.539,273.316 203.476,273.316 203.422 C 273.316 203.165,272.959 203.493,270.856 205.687 M189.838 205.862 L 188.101 207.699 189.939 205.962 C 190.949 205.007,191.776 204.180,191.776 204.125 C 191.776 203.864,191.452 204.155,189.838 205.862 M128.434 205.599 C 129.087 206.273,129.700 206.824,129.796 206.824 C 129.892 206.824,129.437 206.273,128.784 205.599 C 128.131 204.926,127.518 204.374,127.422 204.374 C 127.326 204.374,127.781 204.926,128.434 205.599 M210.674 206.584 C 210.674 206.644,211.185 207.156,211.811 207.721 L 212.948 208.749 211.921 207.612 C 210.962 206.551,210.674 206.313,210.674 206.584 M153.631 218.373 C 153.920 218.559,154.628 218.699,155.206 218.682 C 156.234 218.653,156.238 218.647,155.381 218.373 C 154.042 217.944,152.968 217.944,153.631 218.373 M163.780 218.373 C 162.944 218.640,162.955 218.654,164.021 218.688 C 164.636 218.707,165.235 218.565,165.354 218.373 C 165.603 217.970,165.036 217.970,163.780 218.373 M234.471 218.373 C 234.759 218.559,235.468 218.699,236.045 218.682 C 237.074 218.653,237.078 218.647,236.220 218.373 C 234.882 217.944,233.808 217.944,234.471 218.373 M244.444 218.373 L 243.395 218.640 244.444 218.676 C 245.022 218.696,245.731 218.559,246.019 218.373 C 246.669 217.953,246.096 217.953,244.444 218.373 M287.248 244.248 C 287.336 244.510,287.205 244.641,286.942 244.554 C 286.690 244.470,286.414 244.194,286.330 243.941 C 286.242 243.679,286.374 243.548,286.636 243.635 C 286.889 243.719,287.164 243.995,287.248 244.248 M122.358 250.744 C 122.469 251.032,122.853 251.269,123.211 251.269 C 123.646 251.269,123.796 251.094,123.661 250.744 C 123.550 250.455,123.167 250.219,122.808 250.219 C 122.373 250.219,122.224 250.393,122.358 250.744 M120.385 252.318 C 120.385 252.728,120.152 253.018,119.823 253.018 C 119.475 253.018,119.335 253.212,119.455 253.525 C 119.583 253.860,119.481 253.968,119.155 253.843 C 118.733 253.681,118.736 253.540,119.174 252.871 C 119.457 252.440,119.582 251.982,119.453 251.853 C 119.324 251.724,119.481 251.619,119.802 251.619 C 120.152 251.619,120.385 251.899,120.385 252.318 M120.560 254.768 C 120.679 254.961,120.452 255.118,120.056 255.118 C 119.659 255.118,119.335 254.961,119.335 254.768 C 119.335 254.576,119.562 254.418,119.839 254.418 C 120.117 254.418,120.441 254.576,120.560 254.768 M125.485 255.702 C 125.362 256.022,125.424 256.448,125.623 256.646 C 125.871 256.895,125.984 256.713,125.984 256.063 C 125.984 254.983,125.809 254.857,125.485 255.702 M126.772 257.749 C 126.772 258.253,126.974 258.618,127.253 258.618 C 127.688 258.618,127.887 259.050,127.775 259.755 C 127.753 259.899,127.944 260.017,128.200 260.017 C 128.796 260.017,128.724 258.970,128.067 258.056 C 127.236 256.901,126.772 256.791,126.772 257.749 " stroke="none" fill="#f798bc" fill-rule="evenodd"></path><path id="path4" d="M143.640 83.946 C 143.457 84.115,142.550 84.668,141.625 85.175 C 140.071 86.027,137.946 87.414,137.533 87.847 C 137.437 87.948,136.924 88.306,136.394 88.644 C 133.757 90.322,130.558 93.496,129.721 95.266 C 128.618 97.594,128.131 101.487,128.942 101.487 C 129.566 101.487,129.645 101.886,129.124 102.407 C 128.877 102.654,128.960 103.034,129.386 103.615 C 129.729 104.081,130.009 105.011,130.009 105.681 C 130.009 106.367,130.273 107.167,130.613 107.510 C 130.946 107.846,131.143 108.321,131.051 108.566 C 130.765 109.329,130.614 111.286,130.842 111.284 C 130.961 111.283,132.161 110.401,133.508 109.323 C 144.472 100.557,156.127 94.998,169.109 92.346 C 170.123 92.139,171.584 91.841,172.353 91.685 C 176.507 90.841,185.816 90.502,191.776 90.978 C 199.022 91.557,207.250 92.764,210.011 93.653 C 210.897 93.939,211.763 94.138,211.935 94.096 C 212.108 94.055,212.878 94.132,213.648 94.268 C 214.418 94.403,215.993 94.680,217.148 94.883 C 218.303 95.085,219.563 95.387,219.948 95.555 C 222.675 96.742,225.121 97.579,225.476 97.447 C 225.708 97.361,227.472 97.855,229.396 98.545 C 231.321 99.234,233.718 100.090,234.723 100.447 C 236.719 101.155,239.093 102.213,239.370 102.519 C 239.467 102.625,240.097 103.007,240.770 103.367 C 244.935 105.596,245.919 106.174,246.567 106.771 C 246.964 107.137,247.381 107.437,247.492 107.437 C 247.604 107.437,248.201 107.909,248.819 108.486 C 249.437 109.064,250.084 109.536,250.256 109.536 C 250.428 109.536,250.858 109.812,251.212 110.149 C 251.566 110.486,252.130 110.919,252.467 111.113 C 253.035 111.440,252.999 111.685,251.952 114.612 C 250.174 119.582,249.613 121.870,250.131 122.045 C 250.372 122.127,250.569 122.416,250.569 122.689 C 250.569 122.962,250.805 123.185,251.094 123.185 C 251.422 123.185,251.619 123.516,251.619 124.070 C 251.619 124.558,251.855 125.047,252.143 125.158 C 252.432 125.269,252.668 125.579,252.668 125.847 C 252.668 126.115,252.811 126.334,252.986 126.334 C 253.161 126.334,253.746 127.033,254.287 127.887 C 254.827 128.741,255.613 129.597,256.034 129.789 C 256.460 129.983,256.992 130.728,257.237 131.473 C 257.529 132.362,258.564 133.657,260.334 135.346 L 262.992 137.885 260.419 136.636 C 259.004 135.950,257.780 135.454,257.700 135.534 C 257.620 135.614,258.560 136.175,259.790 136.781 C 267.683 140.666,275.694 148.647,278.728 155.647 C 279.084 156.467,279.440 157.072,279.521 156.991 C 279.601 156.911,279.407 156.344,279.090 155.731 C 278.344 154.287,278.197 154.354,282.624 154.108 L 286.439 153.896 286.833 154.901 C 287.179 155.781,287.697 158.409,288.746 164.605 C 288.904 165.541,289.257 166.647,289.530 167.063 C 289.802 167.479,290.141 168.504,290.282 169.342 C 290.460 170.392,290.740 170.916,291.187 171.033 C 292.541 171.387,292.760 173.144,293.094 186.352 C 293.187 190.009,293.329 194.261,293.410 195.801 C 293.491 197.340,293.570 199.269,293.585 200.087 C 293.605 201.125,293.763 201.575,294.110 201.575 C 294.752 201.575,295.055 206.509,294.437 206.909 C 294.215 207.052,294.031 208.067,294.024 209.183 C 294.005 212.182,293.719 215.083,293.151 218.023 C 292.873 219.466,292.651 220.884,292.658 221.172 C 292.665 221.461,292.326 222.451,291.903 223.371 C 291.481 224.292,290.970 225.938,290.769 227.030 C 290.567 228.121,290.185 229.179,289.919 229.380 C 289.654 229.582,289.367 230.297,289.281 230.971 C 289.053 232.755,288.439 234.558,287.958 234.855 C 287.706 235.011,287.535 236.011,287.528 237.377 C 287.519 239.076,287.403 239.598,287.065 239.468 C 286.817 239.373,286.614 239.470,286.614 239.683 C 286.614 239.896,286.850 240.070,287.139 240.070 C 287.737 240.070,287.846 241.148,287.303 241.691 C 286.806 242.188,287.257 243.220,287.868 242.985 C 288.514 242.737,288.513 242.739,287.477 245.921 C 285.780 251.125,283.888 255.354,280.898 260.623 C 280.217 261.823,279.808 262.895,279.988 263.006 C 280.168 263.117,280.315 263.063,280.315 262.886 C 280.315 262.709,280.714 262.641,281.202 262.734 C 281.689 262.827,282.752 262.663,283.564 262.368 C 284.375 262.074,285.276 261.812,285.564 261.784 C 285.853 261.757,287.025 261.647,288.169 261.540 C 289.313 261.433,290.573 261.136,290.969 260.882 C 291.365 260.627,292.260 260.315,292.959 260.187 C 293.829 260.028,294.350 259.690,294.614 259.112 C 294.825 258.647,295.297 258.268,295.663 258.268 C 296.028 258.268,296.517 258.039,296.750 257.758 C 297.088 257.351,297.306 257.333,297.843 257.668 C 298.575 258.125,298.797 259.170,298.075 258.762 C 297.725 258.564,297.725 258.609,298.075 258.986 C 298.316 259.245,298.513 259.899,298.513 260.437 C 298.513 260.976,298.676 261.417,298.875 261.417 C 299.123 261.417,299.121 261.635,298.869 262.105 C 298.598 262.611,298.634 263.098,299.003 263.943 C 299.279 264.575,299.518 264.889,299.534 264.642 C 299.554 264.323,299.741 264.288,300.178 264.522 C 300.939 264.929,302.282 263.870,303.251 262.098 C 303.614 261.435,304.339 260.184,304.862 259.318 C 305.999 257.433,307.415 253.932,306.916 254.241 C 306.721 254.361,306.562 254.686,306.562 254.964 C 306.562 255.241,306.339 255.468,306.068 255.468 C 305.351 255.468,305.046 253.088,305.359 249.932 C 305.771 245.767,305.802 245.494,305.853 245.494 C 305.880 245.494,305.965 244.899,306.041 244.171 C 306.124 243.386,306.044 242.932,305.846 243.054 C 305.662 243.168,305.512 243.107,305.512 242.919 C 305.512 242.732,305.683 242.521,305.892 242.451 C 306.249 242.332,306.408 239.698,306.152 238.145 C 305.992 237.175,305.434 236.622,304.844 236.849 C 304.550 236.962,304.441 236.887,304.578 236.667 C 304.704 236.462,304.573 236.204,304.285 236.093 C 303.997 235.983,303.762 235.621,303.762 235.290 C 303.762 234.738,303.725 234.735,303.325 235.254 C 302.849 235.872,301.810 236.222,301.827 235.758 C 301.846 235.239,300.805 234.881,299.825 235.068 C 299.296 235.169,298.863 235.381,298.863 235.538 C 298.863 235.695,298.396 235.810,297.825 235.794 C 297.254 235.778,296.542 235.968,296.242 236.217 C 295.637 236.719,295.199 236.467,295.193 235.613 C 295.188 235.089,294.404 234.821,292.789 234.794 C 292.301 234.786,292.183 234.591,292.317 234.014 C 292.729 232.230,295.376 218.787,295.554 217.576 C 295.661 216.848,295.891 216.342,296.065 216.449 C 296.240 216.557,296.303 216.851,296.207 217.103 C 295.829 218.087,297.071 218.534,297.933 217.724 C 298.989 216.732,299.436 216.776,300.049 217.935 C 300.486 218.762,300.592 218.811,300.797 218.287 C 300.928 217.951,301.175 217.763,301.345 217.868 C 301.516 217.973,301.848 217.337,302.085 216.454 C 302.398 215.283,302.724 214.796,303.288 214.654 C 304.378 214.380,305.323 212.256,305.330 210.061 C 305.334 209.051,305.424 208.224,305.530 208.224 C 305.637 208.224,305.737 206.177,305.753 203.676 C 305.769 201.175,305.877 198.458,305.993 197.639 C 306.109 196.820,306.298 194.357,306.412 192.165 C 306.527 189.972,306.676 187.892,306.744 187.541 C 306.979 186.319,307.011 181.371,306.786 181.007 C 306.661 180.806,306.653 180.396,306.768 180.097 C 307.414 178.413,305.122 175.027,304.269 176.406 C 304.141 176.614,303.689 176.698,303.266 176.591 C 302.632 176.432,302.418 176.613,302.056 177.613 C 301.815 178.281,301.491 178.828,301.337 178.828 C 300.908 178.828,299.869 181.801,299.845 183.099 C 299.824 184.187,299.084 185.477,298.480 185.477 C 298.329 185.477,298.109 184.729,297.991 183.815 C 297.873 182.900,297.632 181.886,297.455 181.560 C 297.278 181.235,297.037 179.660,296.920 178.061 C 296.702 175.085,295.960 169.742,295.375 166.929 C 295.194 166.063,294.789 164.094,294.473 162.555 C 292.210 151.522,292.752 152.775,290.188 152.652 C 288.517 152.572,288.014 152.424,288.014 152.013 C 288.014 151.235,284.309 143.562,283.285 142.221 C 282.795 141.578,282.415 140.610,282.415 140.006 C 282.415 138.792,282.441 138.807,281.173 139.289 C 280.287 139.626,280.248 139.598,280.457 138.764 C 280.585 138.254,280.528 137.883,280.322 137.883 C 280.125 137.883,279.965 137.647,279.965 137.358 C 279.965 137.069,280.122 136.833,280.315 136.833 C 280.507 136.833,280.665 136.597,280.665 136.308 C 280.665 135.984,280.336 135.783,279.808 135.783 C 278.951 135.783,277.565 134.729,276.959 133.617 C 276.641 133.035,274.071 130.124,270.023 125.762 C 267.450 122.990,267.554 122.995,271.728 125.845 C 273.589 127.115,275.217 128.050,275.346 127.921 C 275.627 127.639,275.222 127.307,268.941 122.670 C 266.247 120.680,263.368 118.368,262.543 117.531 C 258.143 113.065,257.120 111.970,257.250 111.867 C 257.328 111.805,257.782 111.491,258.258 111.170 C 259.123 110.587,259.122 110.586,257.402 110.586 L 255.681 110.586 256.799 109.432 C 258.199 107.988,258.186 107.823,256.592 106.682 C 255.878 106.170,254.044 104.801,252.517 103.639 C 249.774 101.551,242.880 97.614,237.445 95.032 C 230.097 91.541,228.200 90.956,220.997 89.955 C 219.650 89.768,217.997 89.537,217.323 89.443 C 192.302 85.945,167.369 89.570,147.594 99.581 C 144.755 101.018,142.432 102.029,142.432 101.828 C 142.432 101.595,142.148 101.620,141.645 101.898 C 141.212 102.138,140.657 102.293,140.412 102.244 C 140.167 102.194,139.734 102.386,139.450 102.670 C 138.863 103.257,138.754 103.738,139.283 103.412 C 139.475 103.293,139.633 103.446,139.633 103.752 C 139.633 104.058,139.357 104.414,139.020 104.543 C 138.683 104.671,138.102 105.060,137.729 105.407 C 137.209 105.890,136.985 105.935,136.772 105.600 C 136.550 105.250,136.493 105.250,136.488 105.599 C 136.485 105.840,136.265 106.037,135.999 106.037 C 135.678 106.037,135.528 105.654,135.555 104.899 C 135.596 103.699,135.818 103.298,137.106 102.091 C 138.256 101.013,139.700 98.285,139.509 97.552 C 139.419 97.207,139.528 96.731,139.751 96.494 C 140.425 95.779,140.354 92.703,139.641 91.698 C 139.107 90.947,139.086 90.746,139.497 90.362 C 139.764 90.114,139.983 89.612,139.983 89.246 C 139.983 88.880,140.140 88.483,140.332 88.364 C 140.525 88.245,140.682 87.833,140.682 87.448 C 140.682 87.063,140.840 86.845,141.032 86.964 C 141.225 87.083,141.384 86.896,141.386 86.547 C 141.388 86.190,142.106 85.419,143.034 84.777 C 143.939 84.151,144.520 83.640,144.325 83.640 C 144.131 83.640,143.822 83.778,143.640 83.946 M278.215 101.662 C 278.868 102.336,279.481 102.887,279.577 102.887 C 279.674 102.887,279.218 102.336,278.565 101.662 C 277.912 100.989,277.299 100.437,277.203 100.437 C 277.107 100.437,277.562 100.989,278.215 101.662 M141.382 101.100 C 141.382 101.272,141.761 101.391,142.224 101.363 C 142.686 101.335,142.992 101.194,142.903 101.050 C 142.674 100.679,141.382 100.722,141.382 101.100 M239.292 132.190 C 240.115 132.264,241.375 132.263,242.091 132.188 C 242.808 132.113,242.135 132.052,240.595 132.053 C 239.055 132.055,238.469 132.116,239.292 132.190 M245.407 132.525 C 245.744 132.613,246.295 132.613,246.632 132.525 C 246.969 132.437,246.693 132.365,246.019 132.365 C 245.346 132.365,245.070 132.437,245.407 132.525 M249.489 133.195 C 250.723 133.465,251.797 133.622,251.875 133.544 C 252.055 133.363,248.634 132.622,247.839 132.669 C 247.512 132.688,248.254 132.925,249.489 133.195 M252.843 134.033 C 253.228 134.199,253.780 134.334,254.068 134.334 C 254.399 134.334,254.334 134.223,253.893 134.033 C 253.508 133.868,252.957 133.732,252.668 133.732 C 252.338 133.732,252.402 133.844,252.843 134.033 M255.118 134.674 C 255.407 134.853,256.037 135.104,256.518 135.232 C 257.126 135.395,257.233 135.368,256.868 135.142 C 256.579 134.964,255.949 134.713,255.468 134.584 C 254.860 134.421,254.753 134.449,255.118 134.674 M103.057 139.550 C 102.532 139.931,99.738 143.367,99.738 143.632 C 99.738 143.842,98.395 145.875,97.988 146.282 C 97.892 146.378,97.796 146.614,97.775 146.807 C 97.693 147.558,97.194 148.731,96.955 148.731 C 96.817 148.731,96.693 148.928,96.679 149.169 C 96.646 149.720,95.780 151.997,95.514 152.231 C 95.253 152.461,93.753 155.603,93.635 156.167 C 93.585 156.408,93.446 156.842,93.327 157.130 C 92.850 158.285,91.258 163.298,91.161 163.955 C 91.104 164.339,90.788 166.072,90.459 167.804 C 90.129 169.536,89.787 171.426,89.697 172.003 C 89.437 173.677,89.160 208.419,89.409 208.171 C 89.532 208.047,89.704 206.552,89.790 204.848 C 89.876 203.144,90.026 200.490,90.123 198.950 C 90.220 197.410,90.365 190.717,90.446 184.077 C 90.527 177.354,90.766 171.073,90.984 169.904 C 91.199 168.749,91.433 167.489,91.503 167.104 C 92.394 162.227,93.110 160.105,94.808 157.305 C 95.158 156.728,95.378 156.137,95.296 155.993 C 95.214 155.849,95.294 155.731,95.475 155.731 C 95.655 155.731,95.999 155.258,96.238 154.681 C 96.477 154.103,96.811 153.631,96.980 153.631 C 97.149 153.631,97.288 153.351,97.288 153.009 C 97.288 152.667,97.533 152.037,97.833 151.609 C 98.132 151.181,98.286 150.831,98.175 150.831 C 98.063 150.831,98.230 150.437,98.545 149.956 C 98.860 149.475,99.346 149.081,99.623 149.081 C 99.901 149.081,100.053 148.958,99.959 148.807 C 99.866 148.656,100.344 148.551,101.022 148.574 C 101.700 148.596,102.456 148.412,102.704 148.165 C 102.951 147.917,103.247 147.809,103.362 147.923 C 103.476 148.038,103.795 147.945,104.070 147.717 C 104.596 147.280,106.387 148.549,106.387 149.359 C 106.387 149.563,106.764 150.027,107.226 150.390 C 107.856 150.886,108.029 151.306,107.923 152.078 C 107.745 153.365,109.406 147.615,109.709 145.895 C 109.917 144.709,109.855 144.597,108.684 144.041 C 107.998 143.716,107.437 143.210,107.437 142.917 C 107.437 142.556,107.226 142.452,106.779 142.594 C 106.257 142.759,106.004 142.510,105.557 141.393 C 105.234 140.586,104.758 139.983,104.444 139.983 C 104.142 139.983,103.993 139.825,104.112 139.633 C 104.361 139.229,103.584 139.168,103.057 139.550 M267.192 139.633 C 266.225 140.048,265.617 140.048,265.617 139.633 C 265.617 139.440,266.129 139.294,266.754 139.307 C 267.707 139.328,267.778 139.381,267.192 139.633 M128.952 144.969 L 125.809 148.206 129.046 145.064 C 132.053 142.146,132.443 141.732,132.189 141.732 C 132.137 141.732,130.680 143.189,128.952 144.969 M209.788 144.969 L 207.699 147.157 209.886 145.068 C 211.089 143.919,212.073 142.935,212.073 142.881 C 212.073 142.622,211.728 142.938,209.788 144.969 M158.106 147.241 C 159.317 147.310,161.207 147.309,162.306 147.240 C 163.405 147.171,162.415 147.115,160.105 147.115 C 157.795 147.116,156.896 147.173,158.106 147.241 M237.358 147.240 C 238.465 147.310,240.276 147.310,241.382 147.240 C 242.489 147.171,241.584 147.114,239.370 147.114 C 237.157 147.114,236.251 147.171,237.358 147.240 M152.056 148.031 C 151.615 148.221,151.550 148.332,151.881 148.332 C 152.170 148.332,152.721 148.197,153.106 148.031 C 153.547 147.842,153.612 147.731,153.281 147.731 C 152.992 147.731,152.441 147.866,152.056 148.031 M167.240 148.060 C 168.062 148.389,168.065 148.407,167.428 149.175 C 166.790 149.944,166.793 149.944,167.642 149.157 C 168.542 148.323,168.220 147.668,166.929 147.709 C 166.640 147.718,166.780 147.876,167.240 148.060 M247.769 148.437 C 250.488 149.293,250.439 149.255,249.850 150.035 C 249.404 150.627,249.414 150.627,250.048 150.046 C 250.461 149.668,250.587 149.320,250.379 149.130 C 249.938 148.728,246.748 147.676,246.044 147.701 C 245.742 147.712,246.518 148.043,247.769 148.437 M149.198 149.013 C 148.396 149.340,147.608 149.738,147.448 149.898 C 147.288 150.059,148.023 149.849,149.081 149.431 C 150.140 149.014,151.072 148.607,151.152 148.527 C 151.449 148.230,150.614 148.438,149.198 149.013 M144.588 151.522 C 142.054 153.160,139.665 155.300,138.157 157.283 C 137.562 158.065,138.050 157.650,139.241 156.360 C 140.433 155.070,142.622 153.204,144.107 152.213 C 146.972 150.301,147.202 150.131,146.919 150.131 C 146.821 150.131,145.772 150.757,144.588 151.522 M224.759 151.029 C 223.941 151.520,223.272 152.003,223.272 152.104 C 223.272 152.293,225.633 150.952,226.229 150.425 C 226.831 149.893,226.270 150.124,224.759 151.029 M219.482 155.297 C 217.813 156.984,216.163 158.874,215.816 159.497 C 214.850 161.229,215.306 160.849,216.802 158.677 C 217.542 157.603,219.255 155.713,220.608 154.477 C 221.962 153.242,222.945 152.231,222.792 152.231 C 222.640 152.231,221.150 153.611,219.482 155.297 M135.093 161.767 C 134.248 163.242,133.630 164.764,134.147 164.100 C 134.563 163.565,136.456 159.930,136.318 159.930 C 136.224 159.930,135.673 160.757,135.093 161.767 M213.981 162.764 C 213.483 163.746,213.135 164.608,213.207 164.679 C 213.278 164.751,213.760 163.948,214.276 162.895 C 214.793 161.842,215.141 160.980,215.050 160.980 C 214.959 160.980,214.478 161.783,213.981 162.764 M281.587 162.905 C 281.955 164.570,282.456 165.570,282.201 164.129 C 282.082 163.456,281.843 162.668,281.670 162.380 C 281.464 162.037,281.436 162.218,281.587 162.905 M247.419 163.210 C 247.419 163.588,248.809 166.229,249.008 166.229 C 249.104 166.229,248.846 165.560,248.433 164.742 C 247.622 163.133,247.419 162.827,247.419 163.210 M133.372 165.568 C 133.157 166.187,133.041 166.754,133.116 166.829 C 133.191 166.904,133.429 166.459,133.644 165.840 C 133.860 165.222,133.975 164.655,133.900 164.580 C 133.825 164.505,133.588 164.950,133.372 165.568 M282.581 166.754 C 282.667 167.332,282.919 168.771,283.139 169.953 C 283.520 171.990,283.419 178.758,282.965 181.627 C 282.859 182.301,283.000 181.986,283.278 180.927 C 284.211 177.383,283.930 170.143,282.720 166.579 C 282.449 165.782,282.437 165.797,282.581 166.754 M167.279 168.154 C 167.932 168.828,168.545 169.379,168.641 169.379 C 168.737 169.379,168.282 168.828,167.629 168.154 C 166.976 167.480,166.363 166.929,166.267 166.929 C 166.171 166.929,166.626 167.480,167.279 168.154 M132.318 169.022 C 132.106 170.007,131.948 171.160,131.966 171.583 C 131.984 172.007,132.216 171.260,132.482 169.923 C 132.747 168.587,132.905 167.434,132.833 167.362 C 132.761 167.290,132.529 168.037,132.318 169.022 M211.899 168.329 C 211.766 168.934,211.730 169.502,211.819 169.591 C 211.908 169.680,212.082 169.250,212.205 168.635 C 212.496 167.176,212.214 166.894,211.899 168.329 M185.540 169.363 C 182.673 171.518,180.284 172.261,176.673 172.121 C 175.007 172.056,173.826 172.119,174.048 172.261 C 175.901 173.437,182.498 172.124,185.113 170.057 C 186.093 169.282,187.028 168.731,187.192 168.832 C 187.764 169.186,188.370 174.659,188.175 177.713 C 188.039 179.851,188.071 180.337,188.284 179.353 C 188.867 176.654,188.345 168.980,187.522 168.158 C 187.433 168.069,186.541 168.611,185.540 169.363 M253.018 170.250 C 253.018 170.490,255.161 171.552,255.321 171.392 C 255.397 171.316,254.910 170.992,254.239 170.672 C 253.568 170.352,253.018 170.162,253.018 170.250 M265.617 171.259 C 264.343 171.855,263.362 171.996,260.490 171.999 C 258.536 172.002,257.119 172.119,257.340 172.261 C 258.155 172.781,262.971 172.513,264.917 171.839 C 267.434 170.967,267.509 171.082,267.466 175.763 C 267.349 188.587,258.909 199.331,246.369 202.621 C 244.626 203.079,244.273 203.239,245.319 203.100 C 257.633 201.457,267.806 188.874,267.843 175.240 C 267.857 170.478,267.739 170.267,265.617 171.259 M116.310 175.153 C 116.309 176.885,116.368 177.638,116.441 176.826 C 116.515 176.014,116.515 174.596,116.443 173.676 C 116.371 172.756,116.311 173.421,116.310 175.153 M211.141 175.328 C 211.141 176.772,211.203 177.362,211.279 176.640 C 211.354 175.919,211.354 174.738,211.279 174.016 C 211.203 173.294,211.141 173.885,211.141 175.328 M132.101 179.846 C 132.259 181.682,133.610 186.367,133.898 186.079 C 133.976 186.000,133.788 185.242,133.480 184.394 C 133.171 183.546,132.698 181.750,132.428 180.402 C 131.965 178.091,131.947 178.059,132.101 179.846 M187.326 182.538 C 187.110 183.480,186.989 184.306,187.057 184.374 C 187.252 184.569,187.982 181.618,187.843 181.201 C 187.774 180.994,187.541 181.597,187.326 182.538 M211.783 181.452 C 211.777 181.837,211.908 182.467,212.073 182.852 C 212.457 183.744,212.457 182.824,212.073 181.627 C 211.848 180.924,211.791 180.890,211.783 181.452 M102.618 184.777 C 102.618 185.451,102.690 185.726,102.778 185.389 C 102.866 185.052,102.866 184.501,102.778 184.164 C 102.690 183.828,102.618 184.103,102.618 184.777 M212.438 184.012 C 212.420 184.587,214.752 189.676,215.034 189.676 C 215.148 189.676,214.975 189.164,214.650 188.539 C 214.325 187.913,213.698 186.535,213.256 185.477 C 212.814 184.418,212.446 183.759,212.438 184.012 M185.833 186.760 C 183.289 192.899,177.438 198.625,171.045 201.231 C 169.941 201.682,169.094 202.106,169.163 202.175 C 170.005 203.017,177.816 198.066,180.942 194.708 C 183.529 191.930,187.380 185.513,186.805 184.939 C 186.721 184.855,186.284 185.674,185.833 186.760 M134.037 186.731 C 134.041 187.139,136.089 190.726,136.318 190.726 C 136.412 190.726,135.987 189.821,135.375 188.714 C 134.080 186.376,134.032 186.305,134.037 186.731 M102.287 188.801 C 102.290 189.764,102.358 190.116,102.438 189.584 C 102.519 189.052,102.517 188.265,102.434 187.834 C 102.351 187.404,102.285 187.839,102.287 188.801 M215.786 191.061 C 217.866 194.863,225.611 200.905,229.921 202.090 C 230.402 202.222,229.221 201.542,227.297 200.579 C 223.169 198.514,219.796 195.828,217.481 192.764 C 215.352 189.946,214.959 189.551,215.786 191.061 M136.727 191.514 C 140.503 196.516,146.215 200.901,150.481 202.073 C 150.962 202.206,149.939 201.622,148.206 200.777 C 144.427 198.933,140.369 195.780,138.278 193.064 C 137.436 191.970,136.669 191.076,136.573 191.076 C 136.476 191.076,136.546 191.273,136.727 191.514 M101.949 193.526 C 101.949 194.777,102.013 195.289,102.090 194.663 C 102.168 194.038,102.168 193.014,102.090 192.388 C 102.013 191.763,101.949 192.275,101.949 193.526 M152.056 202.625 C 152.441 202.790,153.071 202.921,153.456 202.915 C 154.018 202.907,153.984 202.850,153.281 202.625 C 152.084 202.241,151.164 202.241,152.056 202.625 M166.929 202.625 C 166.226 202.850,166.192 202.907,166.754 202.915 C 167.139 202.921,167.769 202.790,168.154 202.625 C 169.046 202.241,168.126 202.241,166.929 202.625 M232.196 202.809 C 232.966 203.063,233.911 203.269,234.296 203.266 C 234.681 203.264,234.208 203.043,233.246 202.775 C 231.056 202.166,230.317 202.190,232.196 202.809 M272.769 203.412 L 271.741 204.549 272.878 203.522 C 273.504 202.956,274.016 202.444,274.016 202.384 C 274.016 202.114,273.727 202.352,272.769 203.412 M189.492 205.862 L 187.052 208.399 189.589 205.959 C 191.945 203.692,192.286 203.325,192.029 203.325 C 191.976 203.325,190.834 204.466,189.492 205.862 M128.959 205.774 C 130.102 206.929,131.115 207.874,131.212 207.874 C 131.308 207.874,130.452 206.929,129.309 205.774 C 128.166 204.619,127.152 203.675,127.056 203.675 C 126.960 203.675,127.816 204.619,128.959 205.774 M101.957 208.049 C 101.959 209.589,102.020 210.175,102.094 209.352 C 102.168 208.529,102.167 207.269,102.092 206.552 C 102.016 205.836,101.956 206.509,101.957 208.049 M89.388 217.848 C 89.435 222.467,89.589 226.955,89.731 227.822 C 89.872 228.688,90.151 230.341,90.350 231.496 C 90.550 232.651,90.822 234.423,90.957 235.434 C 91.091 236.445,91.389 237.461,91.620 237.691 C 91.850 237.922,92.038 238.390,92.038 238.731 C 92.038 239.598,94.988 245.736,95.387 245.699 C 95.566 245.683,95.713 245.866,95.713 246.107 C 95.713 246.347,96.067 246.700,96.500 246.890 C 97.214 247.203,97.468 247.885,97.315 249.076 C 97.283 249.329,97.483 249.422,97.799 249.301 C 98.095 249.187,98.338 249.240,98.338 249.418 C 98.338 249.597,98.776 250.233,99.311 250.833 C 99.847 251.433,100.311 252.269,100.343 252.690 C 100.403 253.489,101.617 254.872,101.958 254.530 C 102.066 254.423,102.414 254.595,102.733 254.914 C 103.211 255.392,103.407 255.414,103.865 255.043 C 104.335 254.661,104.384 254.684,104.193 255.194 C 104.069 255.525,104.118 255.889,104.302 256.002 C 104.486 256.116,104.637 255.876,104.637 255.468 C 104.637 255.055,104.794 254.824,104.993 254.947 C 105.188 255.068,105.258 255.313,105.147 255.492 C 105.036 255.671,105.112 255.818,105.316 255.818 C 105.520 255.818,105.687 255.582,105.687 255.293 C 105.687 254.672,105.723 254.666,106.909 255.117 C 107.519 255.349,107.754 255.349,107.611 255.117 C 107.492 254.925,107.606 254.768,107.863 254.768 C 108.945 254.768,108.359 251.707,106.955 250.028 C 105.606 248.414,105.371 247.081,106.387 246.807 C 106.712 246.720,106.772 246.776,106.545 246.955 C 105.456 247.813,106.943 250.433,108.364 250.159 C 109.140 250.009,109.434 248.838,108.793 248.442 C 108.540 248.285,108.459 248.030,108.615 247.876 C 108.771 247.721,109.245 248.027,109.668 248.556 C 110.091 249.086,110.532 249.519,110.649 249.519 C 110.826 249.519,109.620 246.249,108.518 243.745 C 107.729 241.949,107.038 239.494,105.986 234.746 C 104.827 229.519,104.268 228.018,104.988 232.072 C 105.206 233.295,105.458 234.611,105.550 234.996 C 105.850 236.262,101.720 237.496,101.391 236.238 C 101.173 235.407,100.087 235.258,100.087 236.060 C 100.087 236.357,99.772 236.938,99.387 237.351 C 99.002 237.764,98.717 238.270,98.754 238.474 C 98.958 239.623,98.274 240.972,97.452 241.041 C 96.977 241.080,96.588 240.947,96.588 240.745 C 96.588 240.544,96.458 240.459,96.298 240.558 C 95.078 241.312,92.237 235.047,91.848 230.741 C 91.729 229.424,91.479 227.874,91.292 227.297 C 91.105 226.719,90.878 225.144,90.787 223.797 C 90.697 222.450,90.536 220.812,90.430 220.157 C 90.324 219.502,90.171 217.533,90.090 215.782 C 89.743 208.292,89.304 209.584,89.388 217.848 M102.292 212.773 C 102.292 213.832,102.358 214.265,102.438 213.736 C 102.518 213.206,102.518 212.340,102.438 211.811 C 102.358 211.282,102.292 211.715,102.292 212.773 M102.625 216.448 C 102.629 217.218,102.701 217.492,102.785 217.056 C 102.868 216.621,102.865 215.991,102.778 215.656 C 102.690 215.322,102.622 215.678,102.625 216.448 M163.430 218.091 C 162.756 218.287,160.472 218.381,158.355 218.299 C 156.238 218.218,154.899 218.265,155.381 218.402 C 156.881 218.832,162.463 218.716,164.479 218.213 C 165.538 217.948,166.010 217.733,165.529 217.734 C 165.048 217.735,164.103 217.896,163.430 218.091 M244.619 218.023 C 243.443 218.399,244.714 218.399,246.194 218.023 C 247.137 217.783,247.155 217.755,246.369 217.749 C 245.888 217.745,245.101 217.869,244.619 218.023 M236.220 218.400 C 237.070 218.646,244.095 218.789,243.395 218.546 C 243.202 218.480,241.312 218.363,239.195 218.286 C 237.078 218.210,235.739 218.261,236.220 218.400 M295.713 218.843 C 295.713 219.539,295.889 219.773,296.413 219.773 C 296.798 219.773,297.113 219.639,297.113 219.477 C 297.113 219.314,296.798 218.896,296.413 218.548 C 295.730 217.929,295.713 217.936,295.713 218.843 M103.318 222.222 C 103.318 222.896,103.390 223.171,103.478 222.835 C 103.566 222.498,103.566 221.947,103.478 221.610 C 103.390 221.273,103.318 221.549,103.318 222.222 M104.020 226.422 C 104.020 226.903,104.140 227.769,104.287 228.346 C 104.525 229.283,104.554 229.302,104.554 228.521 C 104.554 228.040,104.434 227.174,104.287 226.597 C 104.049 225.660,104.020 225.641,104.020 226.422 M291.178 240.420 C 291.351 240.420,291.390 240.684,291.266 241.007 C 291.012 241.670,290.497 240.771,290.529 239.720 C 290.540 239.364,290.596 239.392,290.705 239.808 C 290.793 240.144,291.006 240.420,291.178 240.420 M286.330 243.941 C 286.414 244.194,286.690 244.470,286.942 244.554 C 287.205 244.641,287.336 244.510,287.248 244.248 C 287.164 243.995,286.889 243.719,286.636 243.635 C 286.374 243.548,286.242 243.679,286.330 243.941 M307.856 251.181 C 307.584 251.664,307.202 253.545,307.419 253.328 C 307.679 253.068,308.316 250.919,308.133 250.919 C 308.061 250.919,307.937 251.037,307.856 251.181 " stroke="none" fill="#eeabce" fill-rule="evenodd"></path></g></svg>